<svg width="32" height="33" viewBox="0 0 32 33" fill="none" xmlns="http://www.w3.org/2000/svg">
<path d="M9.09488 13.9101C9.09488 14.3001 9.13688 14.6164 9.21113 14.8476C9.29513 15.0791 9.40063 15.3321 9.54788 15.6056C9.59963 15.6896 9.62113 15.7736 9.62113 15.8479C9.62113 15.9524 9.55762 16.0579 9.42112 16.1631L8.75787 16.6056C8.66312 16.6681 8.56837 16.7004 8.48462 16.7004C8.37912 16.7004 8.27363 16.6476 8.16813 16.5529C8.02655 16.4001 7.89965 16.2344 7.78912 16.0579C7.67199 15.8553 7.56323 15.6481 7.46312 15.4366C6.64262 16.4054 5.61062 16.8899 4.36812 16.8899C3.48437 16.8899 2.77937 16.6369 2.26287 16.1319C1.74712 15.6261 1.48438 14.9524 1.48438 14.1104C1.48438 13.2159 1.79988 12.4894 2.44263 11.9426C3.08413 11.3946 3.93663 11.1211 5.02163 11.1211C5.37913 11.1211 5.74712 11.1524 6.13662 11.2051C6.52662 11.2579 6.92688 11.3419 7.34788 11.4366V10.6681C7.34788 9.86811 7.17887 9.31061 6.85287 8.98461C6.51537 8.65836 5.94712 8.50011 5.13662 8.50011C4.76837 8.50011 4.38963 8.54211 3.99988 8.63686C3.61291 8.72906 3.23303 8.84878 2.86312 8.99511C2.69412 9.06836 2.56813 9.11036 2.49488 9.13186C2.42088 9.15236 2.36813 9.16311 2.32613 9.16311C2.17863 9.16311 2.10537 9.05761 2.10537 8.83711V8.32136C2.10537 8.15236 2.12587 8.02636 2.17862 7.95236C2.23112 7.87911 2.32613 7.80586 2.47363 7.73161C2.84163 7.54211 3.28412 7.38411 3.79962 7.25786C4.31537 7.12111 4.86312 7.05786 5.44212 7.05786C6.69412 7.05786 7.61012 7.34186 8.20012 7.91036C8.77912 8.47861 9.07312 9.34186 9.07312 10.5001V13.9101H9.09488ZM4.82137 15.5109C5.16812 15.5109 5.52637 15.4474 5.90538 15.3214C6.28438 15.1944 6.62113 14.9631 6.90538 14.6476C7.07338 14.4476 7.20038 14.2266 7.26288 13.9739C7.32638 13.7209 7.36837 13.4164 7.36837 13.0576V12.6164C7.04949 12.538 6.72638 12.478 6.40062 12.4366C6.07216 12.3952 5.74144 12.3743 5.41038 12.3741C4.70538 12.3741 4.18963 12.5109 3.84188 12.7951C3.49513 13.0791 3.32638 13.4786 3.32638 14.0051C3.32638 14.5001 3.45238 14.8684 3.71588 15.1211C3.96888 15.3839 4.33712 15.5109 4.82137 15.5109ZM13.2736 16.6476C13.0841 16.6476 12.9581 16.6164 12.8741 16.5421C12.7891 16.4786 12.7159 16.3321 12.6524 16.1321L10.1789 7.99511C10.1164 7.78436 10.0839 7.64761 10.0839 7.57336C10.0839 7.40536 10.1681 7.31086 10.3371 7.31086H11.3684C11.5684 7.31086 11.7051 7.34186 11.7794 7.41611C11.8634 7.47861 11.9269 7.62611 11.9894 7.82611L13.7579 14.7951L15.4004 7.82636C15.4524 7.61636 15.5159 7.47886 15.5996 7.41636C15.6846 7.35261 15.8321 7.31061 16.0216 7.31061H16.8634C17.0634 7.31061 17.2004 7.34186 17.2844 7.41611C17.3684 7.47861 17.4426 7.62611 17.4844 7.82611L19.1476 14.8791L20.9689 7.82636C21.0314 7.61636 21.1056 7.47886 21.1789 7.41636C21.2629 7.35261 21.4006 7.31061 21.5899 7.31061H22.5684C22.7374 7.31061 22.8321 7.39461 22.8321 7.57336C22.8321 7.62586 22.8214 7.67886 22.8106 7.74236C22.7999 7.80586 22.7794 7.88986 22.7374 8.00486L20.2004 16.1426C20.1369 16.3526 20.0636 16.4894 19.9786 16.5526C19.8946 16.6164 19.7579 16.6584 19.5791 16.6584H18.6741C18.4739 16.6584 18.3371 16.6259 18.2531 16.5529C18.1681 16.4786 18.0949 16.3419 18.0529 16.1319L16.4211 9.34186L14.7999 16.1211C14.7474 16.3321 14.6849 16.4689 14.5999 16.5421C14.5156 16.6164 14.3684 16.6476 14.1789 16.6476H13.2736ZM26.7999 16.9319C26.2531 16.9319 25.7051 16.8684 25.1789 16.7424C24.6524 16.6164 24.2424 16.4786 23.9689 16.3214C23.7999 16.2266 23.6846 16.1214 23.6426 16.0264C23.6011 15.9335 23.5795 15.833 23.5791 15.7314V15.1944C23.5791 14.9739 23.6631 14.8684 23.8216 14.8684C23.8841 14.8684 23.9474 14.8791 24.0109 14.9006C24.0734 14.9211 24.1681 14.9631 24.2734 15.0051C24.6455 15.1685 25.0338 15.2922 25.4319 15.3741C25.8526 15.4581 26.2629 15.5001 26.6846 15.5001C27.3479 15.5001 27.8634 15.3839 28.2209 15.1526C28.5791 14.9211 28.7686 14.5841 28.7686 14.1526C28.7686 13.8576 28.6739 13.6164 28.4846 13.4161C28.2951 13.2161 27.9366 13.0371 27.4211 12.8684L25.8946 12.3946C25.1261 12.1524 24.5576 11.7951 24.2111 11.3214C23.8636 10.8576 23.6846 10.3419 23.6846 9.79511C23.6846 9.35261 23.7796 8.96311 23.9689 8.62611C24.1568 8.28747 24.4152 7.9931 24.7266 7.76286C25.0421 7.52161 25.4006 7.34186 25.8216 7.21586C26.2424 7.08986 26.6846 7.03711 27.1476 7.03711C27.3791 7.03711 27.6211 7.04786 27.8526 7.07911C28.0949 7.11036 28.3156 7.15236 28.5371 7.19436C28.7471 7.24711 28.9474 7.29986 29.1369 7.36336C29.3264 7.42686 29.4739 7.48936 29.5794 7.55286C29.7269 7.63686 29.8321 7.72086 29.8946 7.81536C29.9581 7.90036 29.9894 8.01586 29.9894 8.16311V8.65811C29.9894 8.87911 29.9054 8.99511 29.7471 8.99511C29.6631 8.99511 29.5264 8.95236 29.3479 8.86836C28.7471 8.59486 28.0734 8.45811 27.3264 8.45811C26.7266 8.45811 26.2531 8.55286 25.9269 8.75311C25.5996 8.95236 25.4319 9.25811 25.4319 9.68961C25.4319 9.98461 25.5371 10.2374 25.7471 10.4366C25.9581 10.6366 26.3479 10.8371 26.9054 11.0156L28.4004 11.4894C29.1584 11.7316 29.7054 12.0684 30.0314 12.5001C30.3576 12.9319 30.5159 13.4269 30.5159 13.9739C30.5159 14.4269 30.4209 14.8371 30.2424 15.1944C30.0529 15.5529 29.7999 15.8684 29.4739 16.1211C29.1476 16.3839 28.7579 16.5734 28.3059 16.7111C27.8321 16.8576 27.3371 16.9319 26.7999 16.9319Z" fill="#252F3E"/>
<path d="M29.5004 18.837C28.3924 18.8528 27.0844 19.1 26.0951 19.795C25.7894 20.0158 25.8421 20.3105 26.1791 20.2685C27.3061 20.1318 29.7891 19.837 30.2316 20.4053C30.6741 20.9628 29.7376 23.3103 29.3159 24.3528C29.1899 24.6678 29.4634 24.795 29.7474 24.5528C31.5999 22.995 32.0844 19.7423 31.7054 19.2685C31.5161 19.0373 30.6084 18.821 29.5004 18.837ZM0.407874 19.4648C0.176124 19.4938 0.0711244 19.7738 0.315874 19.995C4.44287 23.7205 9.90562 25.963 15.9691 25.963C20.2954 25.963 25.3266 24.6055 28.7894 22.048C29.3576 21.626 28.8636 20.9845 28.2844 21.247C24.4009 22.8895 20.1791 23.6895 16.3374 23.6895C10.6429 23.6895 5.13737 22.1213 0.674124 19.5313C0.576624 19.4735 0.485374 19.4553 0.408124 19.4648H0.407874Z" fill="#FF9900"/>
</svg>
