<svg width="32" height="32" viewBox="0 0 32 32" fill="none" xmlns="http://www.w3.org/2000/svg">
<path d="M28.85 7.67505L16.775 0.725049C16.575 0.600049 16.3 0.550049 16 0.550049C15.7 0.550049 15.425 0.625049 15.225 0.725049L3.225 7.70005C2.8 7.95005 2.5 8.57505 2.5 9.05005V22.975C2.5 23.25 2.55 23.5751 2.75 23.85L29.45 8.35005C29.3 8.05005 29.075 7.82505 28.85 7.67505Z" fill="#9B4F96"/>
<path d="M2.6748 23.825C2.7998 24.025 2.9748 24.2 3.1498 24.3L15.1998 31.275C15.3998 31.4 15.6748 31.45 15.9748 31.45C16.2748 31.45 16.5498 31.375 16.7498 31.275L28.7498 24.3C29.1748 24.05 29.4748 23.425 29.4748 22.95V9.02495C29.4748 8.79995 29.4498 8.54995 29.3248 8.32495L2.6748 23.825Z" fill="#68217A"/>
<path d="M21.325 19.025C20.275 20.875 18.275 22.125 16 22.125C12.625 22.125 9.875 19.375 9.875 16C9.875 12.625 12.625 9.875 16 9.875C18.275 9.875 20.275 11.125 21.325 13L24.575 11.125C22.875 8.15 19.675 6.125 16 6.125C10.55 6.125 6.125 10.55 6.125 16C6.125 21.45 10.55 25.875 16 25.875C19.65 25.875 22.85 23.875 24.55 20.925L21.325 19.025ZM24.25 16.55L24.475 15.475H23.425V14.3H24.7L25 12.75H26.225L25.925 14.275H26.875L27.175 12.75H28.375L28.075 14.275H28.675V15.45H27.85L27.625 16.525H28.675V17.7H27.4L27.1 19.2H25.875L26.175 17.7H25.225L24.925 19.2H23.725L24.025 17.7H23.425V16.525H24.25V16.55ZM25.45 16.55H26.4L26.625 15.475H25.675L25.45 16.55Z" fill="white"/>
</svg>
