<svg width="32" height="32" viewBox="0 0 32 32" fill="none" xmlns="http://www.w3.org/2000/svg">
<g clip-path="url(#clip0_160_45)">
<path d="M15.2987 0H16.537C19.7665 0.13375 22.959 1.2225 25.5478 3.169C28 4.99125 29.916 7.52825 30.9795 10.3955C31.5898 11.9923 31.8955 13.6905 32 15.3935V16.4463C31.8965 19.2695 31.084 22.0762 29.5675 24.4667C27.8672 27.1905 25.337 29.3993 22.3857 30.6737C20.4537 31.5115 18.376 31.9621 16.2705 32H15.7345C12.8007 31.9522 9.882 31.085 7.41025 29.502C4.61125 27.7238 2.38175 25.0557 1.15325 21.9727C0.47275 20.2975 0.11025 18.505 0 16.703V15.4637C0.126 11.8663 1.48825 8.3115 3.8525 5.58975C5.792 3.3275 8.375 1.62 11.2218 0.73425C12.543 0.3175 13.919 0.1025 15.2987 0ZM6.29775 9.38075C6.29025 12.419 6.295 15.457 6.295 18.4942C6.6525 18.497 7.01 18.497 7.36825 18.497C7.3495 15.8888 7.3935 13.2812 7.34175 10.6737C7.46175 10.9005 7.57125 11.1337 7.708 11.3505C9.25875 13.7275 10.7762 16.125 12.3272 18.5C12.7617 18.4942 13.1962 18.4942 13.6307 18.501C13.63 15.461 13.629 12.421 13.6318 9.381C13.2776 9.37756 12.9234 9.37656 12.5693 9.378C12.588 11.958 12.5352 14.538 12.6005 17.1152C10.9738 14.5272 9.32525 11.954 7.67675 9.379C7.21709 9.37616 6.75741 9.37675 6.29775 9.38075ZM16.0088 9.378C15.9765 12.418 16.0077 15.458 15.997 18.497C17.6143 18.4932 19.2315 18.503 20.8495 18.492C20.8437 18.1627 20.8457 17.8332 20.8555 17.504C19.6025 17.5 18.3487 17.5058 17.0947 17.499C17.0763 16.4465 17.0938 15.3925 17.0847 14.3398C18.1835 14.3203 19.2822 14.3427 20.3797 14.328C20.377 14.0087 20.377 13.6895 20.375 13.37C19.2782 13.4052 18.1817 13.3565 17.084 13.373C17.087 12.3673 17.089 11.3605 17.089 10.3535C18.2638 10.3535 19.4385 10.3485 20.6122 10.3565C20.6102 10.0312 20.6122 9.705 20.6162 9.38C19.08 9.376 17.5438 9.378 16.0088 9.378ZM21.6593 9.3915C21.6602 9.708 21.6602 10.0235 21.6612 10.339C22.5332 10.329 23.4043 10.3663 24.2763 10.3477C24.2705 13.0635 24.2773 15.7772 24.2735 18.4912C24.6385 18.502 25.006 18.5 25.371 18.4688C25.341 16.9708 25.4005 15.4717 25.332 13.9745C25.3488 13.2997 25.3145 12.626 25.3612 11.952C25.3878 11.417 25.292 10.8827 25.3525 10.3477C26.2315 10.3595 27.1112 10.3515 27.99 10.3515C27.986 10.032 27.9923 9.71255 28.0088 9.3935C25.8915 9.36725 23.7745 9.37 21.6593 9.3915ZM3.3875 17.2735C2.89325 17.501 2.861 18.2793 3.35025 18.5303C3.78025 18.8253 4.4265 18.4375 4.407 17.9277C4.44025 17.4268 3.8345 17.0058 3.3875 17.2735ZM10.695 21.0958C9.62575 21.963 9.6385 23.8945 10.82 24.6583C11.487 25.082 12.3455 24.9942 13.0505 24.712C13.0535 24.5567 13.0573 24.4023 13.063 24.247C12.3952 24.5957 11.4605 24.667 10.8942 24.0945C10.153 23.2852 10.32 21.7773 11.2975 21.2255C11.8502 20.9345 12.5243 21.0195 13.069 21.2852C13.0673 21.1202 13.068 20.9553 13.069 20.7903C12.2948 20.5155 11.3385 20.5303 10.695 21.0958ZM14.9967 21.7733C14.5243 21.8283 14.0573 22.0782 13.8385 22.5147C13.5253 23.1388 13.5612 23.9815 14.0545 24.5047C14.5632 25.079 15.5408 25.0848 16.0995 24.579C16.7058 24.002 16.7743 22.962 16.2887 22.288C16.0017 21.8808 15.4705 21.742 14.9967 21.7733ZM19.4685 22.454C19.0535 23.1748 19.1355 24.2665 19.868 24.7568C20.4137 25.0618 21.1012 24.9648 21.6365 24.6798C21.6355 24.5255 21.6375 24.371 21.6443 24.2178C21.2225 24.4853 20.66 24.6818 20.1912 24.412C19.864 24.2315 19.7652 23.8478 19.7127 23.5058C20.4315 23.496 21.1493 23.4852 21.869 23.4872C21.8503 23.0302 21.8395 22.5138 21.5065 22.1602C20.9568 21.5527 19.8455 21.746 19.4685 22.454ZM17.365 21.87V24.872C17.528 24.872 17.693 24.872 17.8582 24.873C17.864 24.3242 17.8482 23.7745 17.864 23.2245C17.868 22.907 17.9958 22.585 18.235 22.371C18.4353 22.2197 18.7057 22.3035 18.9352 22.3095C18.9322 22.1505 18.9303 21.992 18.9295 21.834C18.4813 21.7345 18.0955 21.997 17.869 22.3633C17.864 22.205 17.859 22.0467 17.8563 21.8897C17.6923 21.8837 17.528 21.877 17.365 21.87Z" fill="#623697"/>
<path d="M14.6891 22.3058C15.1021 22.1045 15.6948 22.2033 15.9253 22.6308C16.1878 23.1025 16.1821 23.7265 15.8911 24.1835C15.5111 24.755 14.5093 24.63 14.2603 23.998C14.0083 23.4335 14.1061 22.6273 14.6891 22.3058ZM19.7596 23.1035C19.7711 22.71 20.0456 22.3193 20.4411 22.2335C20.6851 22.1925 20.9653 22.2353 21.1343 22.4318C21.3023 22.6103 21.3376 22.8603 21.3793 23.0918C20.8393 23.0948 20.2996 23.084 19.7596 23.1035Z" fill="#623697"/>
</g>
<defs>
<clipPath id="clip0_160_45">
<rect width="32" height="32" fill="white"/>
</clipPath>
</defs>
</svg>
