<svg width="32" height="33" viewBox="0 0 32 33" fill="none" xmlns="http://www.w3.org/2000/svg">
<g clip-path="url(#clip0_160_74)">
<path d="M0.351562 0.852051H31.6476V32.1483H0.351562V0.852051Z" fill="#F0DB4F"/>
<path d="M29.0864 24.684C28.8571 23.2562 27.9261 22.057 25.1684 20.9387C24.2104 20.4985 23.1424 20.1832 22.8241 19.4572C22.7111 19.0347 22.6961 18.7967 22.7676 18.541C22.9729 17.711 23.9636 17.4522 24.7489 17.6902C25.2546 17.8597 25.7334 18.2495 26.0221 18.8712C27.3726 17.9967 27.3699 18.0025 28.3129 17.4015C27.9676 16.8662 27.7834 16.6192 27.5574 16.3902C26.7451 15.483 25.6384 15.0157 23.8684 15.0515L22.9464 15.1707C22.0629 15.394 21.2209 15.8577 20.7271 16.4795C19.2456 18.1605 19.6681 21.1025 21.4709 22.3132C23.2469 23.6462 25.8559 23.9495 26.1891 25.196C26.5134 26.722 25.0676 27.216 23.6306 27.0405C22.5716 26.8202 21.9826 26.282 21.3459 25.3032C20.1739 25.9815 20.1739 25.9815 18.9689 26.6745C19.2546 27.2992 19.5549 27.582 20.0339 28.1232C22.3009 30.4227 27.9739 30.3097 28.9914 26.8292C29.0326 26.7097 29.3066 25.9127 29.0864 24.684ZM17.3651 15.2357H14.4379L14.4259 22.8037C14.4259 24.4132 14.5091 25.8887 14.2474 26.341C13.8191 27.2305 12.7094 27.1202 12.2036 26.9477C11.6889 26.6947 11.4271 26.335 11.1239 25.8265C11.0406 25.6805 10.9781 25.5675 10.9571 25.5587L8.57715 27.0162C8.9729 27.8285 9.5559 28.5335 10.3026 28.9915C11.4181 29.661 12.9174 29.8662 14.4854 29.5062C15.5059 29.209 16.3864 28.5932 16.8474 27.656C17.5139 26.4272 17.3709 24.94 17.3649 23.295C17.3799 20.6112 17.3651 17.928 17.3651 15.2357Z" fill="#323330"/>
</g>
<defs>
<clipPath id="clip0_160_74">
<rect width="32" height="32" fill="white" transform="translate(0 0.5)"/>
</clipPath>
</defs>
</svg>
