<svg width="32" height="32" viewBox="0 0 32 32" fill="none" xmlns="http://www.w3.org/2000/svg">
<path d="M11.9043 24.53C11.9043 24.53 10.7126 25.2235 12.7536 25.4575C15.2266 25.74 16.4903 25.6995 19.2148 25.1845C19.2148 25.1845 19.9326 25.6333 20.9331 26.0223C14.8233 28.6398 7.10607 25.8705 11.9043 24.53ZM11.1573 21.1138C11.1573 21.1138 9.82032 22.1035 11.8631 22.315C14.5048 22.5878 16.5906 22.61 20.2016 21.915C20.2016 21.915 20.6998 22.4213 21.4846 22.6978C14.0991 24.8578 5.87307 22.8678 11.1573 21.1138Z" fill="#0074BD"/>
<path d="M17.4506 15.3177C18.9569 17.0515 17.0556 18.6102 17.0556 18.6102C17.0556 18.6102 20.8779 16.6375 19.1229 14.166C17.4831 11.8622 16.2261 10.718 23.0316 6.771C23.0316 6.77125 12.3489 9.4385 17.4506 15.3177Z" fill="#EA2D2E"/>
<path d="M25.5306 27.0572C25.5306 27.0572 26.4129 27.7847 24.5586 28.347C21.0331 29.415 9.88211 29.737 6.78511 28.3897C5.67236 27.9052 7.75986 27.2335 8.41661 27.0917C9.10136 26.9435 9.49236 26.9705 9.49236 26.9705C8.25411 26.0987 1.48911 28.683 6.05661 29.4242C18.5119 31.4432 28.7609 28.515 25.5306 27.0572ZM12.4779 17.5735C12.4779 17.5735 6.80636 18.9207 10.4696 19.4105C12.0166 19.6175 15.0991 19.57 17.9724 19.329C20.3199 19.1317 22.6756 18.7105 22.6756 18.7105C22.6756 18.7105 21.8486 19.0652 21.2496 19.4737C15.4891 20.989 4.36361 20.2832 7.56686 18.7342C10.2749 17.4245 12.4779 17.5735 12.4779 17.5735ZM22.6521 23.2602C28.5074 20.2185 25.7999 17.2952 23.9101 17.689C23.4481 17.7852 23.2409 17.869 23.2409 17.869C23.2409 17.869 23.4129 17.5992 23.7409 17.4832C27.4791 16.1695 30.3536 21.359 22.5351 23.4145C22.5351 23.414 22.6249 23.3327 22.6521 23.2602Z" fill="#0074BD"/>
<path d="M19.123 0.396729C19.123 0.396729 22.365 3.64073 16.0473 8.62748C10.9808 12.629 14.892 14.91 16.0455 17.5172C13.0878 14.849 10.9183 12.4997 12.3735 10.3135C14.5105 7.10498 20.4308 5.54873 19.123 0.396729Z" fill="#EA2D2E"/>
<path d="M13.0534 31.5052C18.6724 31.8645 27.3034 31.3052 27.5076 28.6462C27.5076 28.6462 27.1149 29.6542 22.8634 30.454C18.0669 31.357 12.1499 31.2517 8.6416 30.6725C8.6416 30.6727 9.36035 31.2677 13.0534 31.5052Z" fill="#0074BD"/>
</svg>
