<svg width="32" height="32" viewBox="0 0 32 32" fill="none" xmlns="http://www.w3.org/2000/svg">
<g clip-path="url(#clip0_160_49)">
<path d="M19.8407 14.9387L13.4322 17.0312L7.85717 19.4917L6.29717 19.9037C5.88546 20.2969 5.46391 20.6797 5.03292 21.0517C4.53892 21.4777 4.07892 21.8655 3.72542 22.1462C3.33292 22.4562 2.75167 23.0375 2.45617 23.4057C2.01517 23.958 1.66667 24.544 1.51642 24.9945C1.24992 25.8082 1.38092 26.6317 1.89417 27.3922C2.55317 28.361 3.86567 29.3492 5.39617 30.0222C6.17617 30.3665 7.48867 30.8072 8.47717 31.054C10.1189 31.4707 13.2967 31.9215 15.0452 31.989C15.3987 32.0037 15.8734 32.0037 15.8927 31.989C15.9317 31.9647 16.2029 31.4465 16.5179 30.8025C17.5929 28.608 18.3679 26.5495 18.7897 24.791C19.0414 23.7255 19.2399 22.3062 19.3707 20.6255C19.4047 20.1555 19.4192 18.5812 19.3902 18.0485C19.3464 17.1767 19.2689 16.4695 19.1477 15.777C19.1284 15.675 19.1237 15.583 19.1334 15.578C19.1527 15.5637 19.2109 15.5442 20.0004 15.3165L19.8407 14.9387ZM18.3779 15.7962C18.4362 15.7962 18.5909 17.283 18.6297 18.2227C18.6394 18.4215 18.6347 18.5522 18.6247 18.5522C18.5862 18.5522 17.8062 18.0922 17.2494 17.7432C16.7649 17.4382 15.8444 16.828 15.6994 16.7115C15.6507 16.6777 15.6554 16.6727 16.0527 16.5372C16.7259 16.3097 18.3247 15.796 18.3777 15.796L18.3779 15.7962ZM15.1129 16.8712C15.1567 16.8712 15.2679 16.9342 15.5344 17.099C16.5322 17.724 17.8887 18.4797 18.4699 18.7315C18.6489 18.809 18.6684 18.7797 18.2567 19.061C17.3752 19.6615 16.2757 20.2525 14.9292 20.8482C14.6917 20.9547 14.4929 21.037 14.4882 21.037C14.4784 21.037 14.5077 20.916 14.5464 20.7707C14.8707 19.5645 15.0549 18.344 15.0647 17.3655C15.0697 16.881 15.0697 16.881 15.1132 16.8665C15.1032 16.8715 15.1082 16.8715 15.1132 16.8715L15.1129 16.8712ZM14.4399 17.128C14.4689 17.1572 14.4494 18.2422 14.4107 18.5377C14.3239 19.2517 14.1748 19.9567 13.9652 20.6447C13.9119 20.824 13.8634 20.9742 13.8537 20.9837C13.8342 21.008 13.1707 20.3587 12.9527 20.107C12.5749 19.671 12.2794 19.2352 12.0614 18.809C11.9502 18.591 11.7757 18.1647 11.7902 18.1502C11.8677 18.0967 14.4204 17.1087 14.4399 17.128ZM11.2719 18.373C11.2767 18.373 11.2814 18.373 11.2864 18.3777C11.2962 18.3875 11.3302 18.4652 11.3592 18.5522C11.5142 18.9735 11.8627 19.5935 12.1632 19.9907C12.4927 20.4267 12.9237 20.892 13.2822 21.197C13.3984 21.2937 13.5049 21.3857 13.5194 21.4002C13.5484 21.4295 13.5582 21.4245 12.7684 21.725C11.8534 22.0737 10.8554 22.4225 9.71217 22.7905C9.43909 22.8785 9.16625 22.9674 8.89367 23.057C8.84992 23.0715 8.86467 23.047 8.99042 22.8485C9.55717 21.9625 10.4192 20.2235 10.9037 18.993C10.9862 18.7797 11.0687 18.5667 11.0832 18.5182C11.1024 18.4505 11.1267 18.4262 11.1894 18.3922C11.2234 18.3827 11.2574 18.373 11.2719 18.373ZM10.3032 18.775C10.3177 18.7847 10.0707 19.303 9.82842 19.7775C9.35842 20.6932 8.84517 21.5942 8.15742 22.689C8.04092 22.8777 7.92992 23.0522 7.91492 23.0715C7.89092 23.1055 7.88142 23.0957 7.80367 22.9457C7.63892 22.621 7.50342 22.2045 7.43067 21.8217C7.35817 21.444 7.37267 20.7852 7.45517 20.3782C7.51767 20.0782 7.51317 20.083 7.65842 20.0102C8.27842 19.6952 10.2837 18.7557 10.3032 18.775ZM18.6587 19.1142V19.3175C18.6587 20.3977 18.5424 21.88 18.3729 22.96C18.3439 23.149 18.3197 23.304 18.3149 23.309C18.3149 23.309 18.1744 23.2702 18.0099 23.2217C17.2379 22.9766 16.4916 22.657 15.7814 22.2675C15.3114 22.0107 14.6289 21.5892 14.6482 21.57C14.6529 21.565 14.8564 21.4585 15.0937 21.3325C16.0432 20.8385 16.9537 20.3057 17.7434 19.7775C18.0389 19.579 18.4844 19.2595 18.5812 19.1722L18.6587 19.1142ZM6.64617 20.5477C6.66542 20.5477 6.66042 20.5865 6.63142 20.761C6.60714 20.9329 6.58937 21.1057 6.57817 21.279C6.53942 21.9865 6.65567 22.5097 7.00442 23.2265C7.10142 23.425 7.17892 23.5897 7.17392 23.5945C7.14017 23.6237 3.93342 24.5635 2.92592 24.8395C2.62567 24.922 2.36417 24.9945 2.34467 24.9992C2.31067 25.0092 2.30592 25.0042 2.32042 24.9217C2.43192 24.2097 2.97442 23.2797 3.73017 22.495C4.23367 21.9717 4.63592 21.6667 5.32367 21.2745C5.81767 20.9935 6.57817 20.572 6.63617 20.5527C6.63617 20.5477 6.64117 20.5477 6.64617 20.5477ZM14.2024 21.8992C14.2074 21.8942 14.3234 21.9575 14.4639 22.0397C15.5007 22.6405 16.9439 23.1975 18.1742 23.4832L18.2857 23.5075L18.1307 23.5947C17.4867 23.9532 15.3697 24.8347 13.2047 25.6435C12.8897 25.7597 12.5797 25.876 12.5217 25.9002C12.4634 25.9245 12.4102 25.939 12.4102 25.934C12.4102 25.929 12.4974 25.7597 12.6087 25.5515C13.2142 24.418 13.8244 23.0375 14.1347 22.0785C14.1734 21.9865 14.1974 21.9042 14.2022 21.8992H14.2024ZM13.4324 22.151C13.4372 22.156 13.3984 22.2577 13.3499 22.374C12.9284 23.396 12.3762 24.5102 11.6689 25.7597C11.4899 26.0797 11.3397 26.3362 11.3349 26.3362C11.3299 26.3362 11.1847 26.249 11.0102 26.1425C9.98342 25.5127 9.07267 24.7377 8.47717 23.987L8.38967 23.8805L8.83067 23.7592C10.4097 23.3282 11.7514 22.8632 13.0834 22.2917C13.2724 22.2142 13.4277 22.151 13.4324 22.151ZM18.2179 23.8222C18.2229 23.9337 17.9757 24.9315 17.7722 25.6532C17.6027 26.2587 17.4574 26.7332 17.1909 27.5712C17.0749 27.9397 16.9734 28.2445 16.9684 28.2445C16.9634 28.2445 16.9344 28.24 16.9052 28.2302C15.4667 27.9685 14.1782 27.6052 12.9672 27.121C12.6282 26.9852 12.1439 26.7672 12.1147 26.743C12.1052 26.7332 12.3957 26.5977 12.7639 26.438C14.9679 25.474 17.2539 24.3792 18.0389 23.9095C18.1309 23.8512 18.2034 23.8222 18.2179 23.8222ZM7.16917 24.2C7.17892 24.21 6.56367 25.0962 5.70167 26.3025C5.40117 26.7237 5.05242 27.2177 4.92167 27.4017C4.77038 27.6151 4.62344 27.8316 4.48092 28.051L4.27742 28.366L4.05942 28.1817C3.80267 27.9685 3.35717 27.5132 3.15842 27.2615C2.74192 26.7432 2.46092 26.1957 2.34967 25.697C2.29617 25.4645 2.29617 25.348 2.34467 25.3337C3.20293 25.1287 4.06194 24.9268 4.92167 24.728C5.50023 24.5948 6.07823 24.4592 6.65567 24.3212C6.93667 24.2535 7.16442 24.2 7.16917 24.2ZM7.78917 24.4375L7.94417 24.6117C8.64167 25.3917 9.35367 25.9682 10.2159 26.4717C10.3709 26.5592 10.4872 26.6367 10.4774 26.6417C10.4437 26.6657 7.48392 27.7167 6.11317 28.1915C5.64439 28.3576 5.17455 28.5207 4.70367 28.6807C4.69892 28.6807 4.65517 28.6515 4.60692 28.6177L4.51967 28.5547L4.66017 28.3512C5.11517 27.6925 5.68692 26.9707 6.93167 25.4692L7.78917 24.4375ZM11.6547 27.2032C11.6594 27.1982 11.8724 27.2757 12.1342 27.373C12.7639 27.6102 13.2627 27.7605 13.9312 27.93C14.7547 28.1382 15.9462 28.3417 16.6487 28.4C16.7552 28.4095 16.8132 28.4192 16.7939 28.4337C16.7599 28.453 16.0479 28.6905 15.5249 28.855C14.6917 29.1167 12.1487 29.8675 10.0754 30.4632C9.83216 30.5344 9.5884 30.6039 9.34417 30.6717C9.29567 30.6812 9.13567 30.6375 9.13567 30.6182C9.13567 30.6087 9.25192 30.4585 9.39242 30.2937C10.0899 29.4605 10.7827 28.5305 11.3592 27.649C11.5192 27.4067 11.6547 27.208 11.6547 27.2032ZM10.8022 27.2275C10.8069 27.2325 10.4629 27.7845 9.86217 28.734C9.60567 29.136 9.31967 29.5915 9.21817 29.7512C9.12117 29.9062 8.97567 30.1485 8.89367 30.284L8.75317 30.531L8.68042 30.5117C8.50592 30.4632 7.28042 30.032 6.95592 29.9012C6.57111 29.7481 6.19444 29.5752 5.82742 29.3832C5.43992 29.1747 4.95567 28.8647 4.99442 28.855C5.00392 28.85 5.66767 28.671 6.46692 28.453C8.58817 27.8765 9.76542 27.5425 10.5357 27.3002C10.6762 27.2565 10.7972 27.2227 10.8019 27.2277L10.8022 27.2275ZM16.8327 28.6417H16.8377C16.8569 28.6905 16.0722 30.87 15.7862 31.5577C15.7234 31.7127 15.6992 31.7517 15.6652 31.7467C15.5829 31.7417 14.4447 31.5822 13.7519 31.4805C12.5459 31.2965 10.5209 30.9427 10.0127 30.8265L9.89617 30.8022L10.6179 30.6375C12.1679 30.2887 12.9139 30.1 13.6697 29.8675C14.6455 29.5689 15.5989 29.2014 16.5227 28.7677C16.6727 28.7002 16.7987 28.6465 16.8327 28.6417Z" fill="url(#paint0_linear_160_49)"/>
<path d="M13.2338 0.00025C13.1273 -0.01425 11.4075 0.60575 10.2985 1.05625C8.80154 1.6665 7.63929 2.24775 6.92229 2.7515C6.65579 2.9405 6.32154 3.27475 6.26829 3.4055C6.24848 3.45814 6.23864 3.51401 6.23929 3.57025L6.88854 4.18525L8.43354 4.6795L12.11 5.33825L16.3143 6.06L16.358 5.69675C16.3435 5.69675 16.3338 5.69175 16.3193 5.69175L15.767 5.60475L15.6558 5.406C15.084 4.3985 14.4545 3.14875 14.0863 2.306C13.8008 1.652 13.5293 0.8965 13.3793 0.354C13.2968 0.0245 13.2873 0.005 13.2338 0V0.00025ZM13.1563 0.24725H13.1613C13.166 0.25225 13.1853 0.388 13.2048 0.54775C13.2873 1.22575 13.4373 1.87975 13.6748 2.587C13.8538 3.1195 13.8538 3.09075 13.6455 3.02775C13.1515 2.89225 10.938 2.5095 9.33454 2.2865C9.07779 2.25275 8.85979 2.219 8.85979 2.214C8.84054 2.1945 10.0173 1.5795 10.5358 1.33725C11.1993 1.03225 13.0208 0.2715 13.1563 0.24725ZM8.48679 2.4175L8.67579 2.4805C9.70279 2.82925 12.2843 3.3235 13.7085 3.43975C13.8683 3.45425 14.004 3.46875 14.0085 3.46875C14.0135 3.47375 13.878 3.54625 13.7035 3.6285C13.0158 3.9725 12.26 4.394 11.737 4.7185C11.582 4.81525 11.4415 4.893 11.422 4.893C11.4028 4.893 11.301 4.8735 11.1945 4.85875L11.0008 4.82975L10.5163 4.355C9.92729 3.78137 9.33478 3.21136 8.73879 2.645L8.48679 2.4175ZM8.29304 2.56775L8.97604 3.42025C9.34904 3.89025 9.72704 4.35025 9.80929 4.452C9.89179 4.55375 9.95929 4.636 9.95429 4.641C9.93504 4.6555 8.96629 4.4665 8.45304 4.3505C7.92504 4.22925 7.70704 4.171 7.38254 4.06925L7.11604 3.982V3.9145C7.12104 3.5895 7.53279 3.10525 8.23004 2.6115L8.29304 2.56775ZM14.096 3.73025C14.1153 3.73025 14.1395 3.77375 14.1975 3.9045C14.3625 4.26775 14.8758 5.24625 15.0018 5.43525C15.0405 5.49825 15.1083 5.50325 14.4253 5.39175C12.7833 5.12525 12.2553 5.038 12.2553 5.0285C12.2553 5.0235 12.3038 4.98975 12.3668 4.95575C12.8755 4.67475 13.3888 4.3165 13.8443 3.93375C13.9555 3.84175 14.0573 3.7545 14.0768 3.74C14.0815 3.73025 14.091 3.7255 14.096 3.73025Z" fill="url(#paint1_linear_160_49)"/>
<path d="M6.30177 3.3374C6.30177 3.3374 6.19527 3.50715 6.29677 3.75915C6.35977 3.91415 6.54377 4.1029 6.75227 4.29665C6.75227 4.29665 8.90752 6.3989 9.16927 6.69915C10.3608 8.0749 10.8793 9.43115 10.9275 11.3009C10.9568 12.5022 10.729 13.5582 10.1623 14.7837C9.15477 16.9827 7.02827 19.4097 3.74902 22.1027L4.22852 21.9427C4.53852 21.7102 4.96002 21.4634 5.94827 20.9209C8.22952 19.6709 10.7968 18.5232 13.9453 17.3409C18.479 15.6359 25.9338 13.6404 30.1768 12.9914L30.6178 12.9237L30.5498 12.8169C30.1623 12.2162 29.8958 11.8434 29.576 11.4462C28.646 10.2934 27.5178 9.35865 26.137 8.58365C24.2383 7.52265 21.7825 6.6944 18.6728 6.0794C18.0865 5.9629 16.798 5.74015 15.7518 5.5804C14.0055 5.31173 12.2617 5.02755 10.5205 4.7279C9.95377 4.6309 9.10602 4.48565 8.54427 4.3644C8.25352 4.3014 7.69677 4.17065 7.26077 4.02065C6.91202 3.8849 6.40827 3.7494 6.30152 3.33765L6.30177 3.3374ZM7.55152 4.5484C7.55627 4.5439 7.63377 4.5729 7.73552 4.60665C7.96757 4.68455 8.20183 4.75567 8.43802 4.8199C8.65058 4.87837 8.86367 4.93488 9.07727 4.9894C9.36777 5.0619 9.61002 5.12965 9.61477 5.12965C9.64877 5.16365 10.138 6.72815 10.3028 7.3289C10.3658 7.5564 10.4143 7.75015 10.4095 7.75015C10.4045 7.75515 10.3513 7.67265 10.2883 7.5614C9.72152 6.56365 8.82552 5.5514 7.78877 4.7374C7.65327 4.64065 7.55152 4.5534 7.55152 4.5484ZM9.93452 5.2074C9.95902 5.2074 10.0655 5.2219 10.1963 5.2509C11.0195 5.4349 12.497 5.7159 13.4413 5.8759C13.6013 5.90015 13.7273 5.92915 13.7273 5.93865C13.7273 5.94865 13.6693 5.9824 13.5965 6.02115C13.4365 6.1034 12.7925 6.48615 12.5793 6.63115C12.0418 6.9899 11.5573 7.3774 11.2085 7.72615C11.068 7.86665 10.947 7.9829 10.947 7.9829C10.947 7.9829 10.918 7.9004 10.8935 7.7989C10.7193 7.1254 10.356 6.12765 10.0265 5.42515C9.97327 5.3139 9.92977 5.21215 9.92977 5.20265C9.92977 5.21215 9.92952 5.2074 9.93452 5.2074ZM14.1295 6.0064C14.1585 6.0164 14.207 6.1809 14.3038 6.54415C14.4854 7.26901 14.5636 8.01589 14.5363 8.76265C14.5265 8.96615 14.5168 9.15515 14.507 9.1794L14.4925 9.22765L14.2408 9.14515C13.7225 8.98065 12.8798 8.73365 12.158 8.53015C11.7463 8.41865 11.412 8.31715 11.412 8.30765C11.412 8.2784 12.0128 7.67765 12.2695 7.45015C12.7585 7.0189 14.0858 5.99215 14.1295 6.0064ZM14.4635 6.0549C14.478 6.0404 16.469 6.38415 17.3748 6.55865C18.0483 6.6894 19.0265 6.8929 19.0848 6.91715C19.1135 6.9269 19.012 6.98465 18.6873 7.1304C17.4085 7.70665 16.4593 8.2249 15.5148 8.85465C15.2678 9.0194 15.0593 9.15515 15.0548 9.15515C15.0498 9.15515 15.0448 9.01465 15.0448 8.84515C15.0448 7.9249 14.861 6.99465 14.5218 6.21015C14.4878 6.13265 14.4588 6.0599 14.4635 6.05515V6.0549ZM19.6125 7.0724C19.627 7.08665 19.5643 7.47915 19.506 7.71165C19.3315 8.4334 18.8618 9.5039 18.2855 10.5114C18.1835 10.6907 18.0915 10.8359 18.0818 10.8407C18.0723 10.8457 17.9418 10.7729 17.7913 10.6857C17.2295 10.3562 16.59 10.0464 15.8925 9.75565C15.6988 9.67315 15.5293 9.60565 15.5245 9.59565C15.4905 9.5669 17.0503 8.53515 17.8735 8.0409C18.5278 7.64365 19.5935 7.0529 19.6125 7.07215V7.0724ZM19.9808 7.1304C20.0243 7.1304 20.9058 7.3724 21.366 7.50815C22.5043 7.84715 23.8123 8.32665 24.6648 8.71415L25.0183 8.87415L24.7713 8.93215C22.6888 9.41165 20.906 9.96415 19.1863 10.6614C19.0458 10.7197 18.9198 10.7682 18.9103 10.7682C18.9005 10.7682 18.949 10.6567 19.012 10.5212C19.5303 9.4214 19.8645 8.27365 19.947 7.2949C19.9518 7.2029 19.9663 7.1304 19.9808 7.1304ZM11.2038 9.1454C11.2183 9.1309 11.8913 9.29065 12.2548 9.3924C12.8073 9.5474 13.9793 9.9399 13.9793 9.96865C13.9793 9.97365 13.8485 10.0852 13.6935 10.2207C13.059 10.7487 12.4485 11.3057 11.717 12.0129C11.4993 12.2212 11.3153 12.3907 11.3055 12.3907C11.2955 12.3907 11.291 12.3617 11.2955 12.3229C11.407 11.5092 11.383 10.4629 11.228 9.40215C11.2133 9.2664 11.199 9.15015 11.2038 9.1454ZM25.3525 9.1599C25.362 9.16965 25.0425 9.67315 24.839 9.9589C24.5485 10.3757 24.122 10.9279 23.1583 12.1389C22.7336 12.672 22.3106 13.2064 21.8893 13.7422C21.6955 13.9844 21.5358 14.1877 21.5305 14.1877C21.526 14.1877 21.463 14.1007 21.395 13.9942C20.8525 13.1802 20.2035 12.4682 19.4333 11.8289C19.3159 11.7295 19.1964 11.6326 19.075 11.5382C19.0215 11.4994 18.978 11.4607 18.978 11.4557C18.978 11.4414 19.8013 11.0877 20.4263 10.8359C21.5213 10.3902 23.0128 9.8574 24.132 9.5134C24.718 9.3294 25.3428 9.15015 25.3525 9.1599ZM25.7255 9.25665C25.7448 9.2519 25.8613 9.31015 26.0015 9.3924C27.1788 10.0657 28.3315 10.9329 29.242 11.8239C29.4988 12.0759 30.1335 12.7347 30.1238 12.7394C30.1238 12.7394 29.9008 12.7589 29.6393 12.7782C27.6 12.9332 24.9893 13.3642 22.4803 13.9697C22.3105 14.0084 22.1603 14.0422 22.1508 14.0422C22.1413 14.0422 22.33 13.8534 22.5675 13.6259C24.04 12.2067 24.7133 11.3107 25.5075 9.7119C25.619 9.4749 25.7158 9.27115 25.7255 9.25665C25.7205 9.25665 25.7205 9.25665 25.7255 9.25665ZM14.9383 10.3612C15.006 10.3757 15.6358 10.6712 16.1105 10.9087C16.5465 11.1264 17.2005 11.4752 17.2343 11.5044C17.2393 11.5092 17.0068 11.6302 16.7208 11.7709C15.8669 12.1954 15.0314 12.6559 14.2165 13.1512C13.984 13.2917 13.7903 13.4079 13.7855 13.4079C13.766 13.4079 13.771 13.3884 13.9018 13.1512C14.3378 12.3569 14.6865 11.4074 14.885 10.4822C14.9043 10.4097 14.9238 10.3612 14.9383 10.3612ZM14.3085 10.4774C14.323 10.4919 14.1585 11.0877 14.0568 11.4124C13.858 12.0274 13.5238 12.7974 13.1993 13.3789C13.1218 13.5144 13.0055 13.7132 12.9425 13.8244L12.8215 14.0182L12.5503 13.7567C12.2353 13.4517 11.9788 13.2627 11.6495 13.0929C11.5185 13.0254 11.4168 12.9672 11.4168 12.9574C11.4168 12.9187 12.2453 12.1679 12.8798 11.6254C13.3348 11.2329 14.294 10.4629 14.3085 10.4774ZM18.1595 12.0614L18.397 12.2164C18.9395 12.5702 19.5788 13.0399 20.068 13.4514C20.344 13.6789 20.8768 14.1589 20.9835 14.2749L21.0415 14.3379L20.649 14.4494C18.4308 15.0644 16.716 15.6119 14.7155 16.3482C14.4925 16.4307 14.3038 16.4982 14.2893 16.4982C14.2603 16.4982 14.236 16.5224 14.735 16.0622C16.0138 14.8854 17.147 13.5872 17.99 12.3229L18.1595 12.0614ZM17.147 12.3132C17.157 12.3229 16.4933 13.2577 16.096 13.7857C15.6213 14.4154 14.7785 15.4714 14.197 16.1592C13.955 16.4452 13.747 16.6824 13.737 16.6872C13.7225 16.6922 13.7175 16.6197 13.7175 16.5079C13.7175 15.9219 13.5675 15.2969 13.306 14.7642C13.1945 14.5414 13.175 14.4882 13.1995 14.4639C13.2915 14.3814 14.701 13.5774 15.592 13.0979C16.193 12.7782 17.1325 12.3037 17.147 12.3132ZM11.0245 13.8149C11.039 13.8149 11.1503 13.8729 11.2765 13.9407C11.5713 14.1013 11.8502 14.2895 12.1095 14.5027C12.1193 14.5122 11.9933 14.6142 11.8285 14.7352C11.3685 15.0644 10.671 15.5927 10.264 15.9172C9.83777 16.2562 9.82327 16.2657 9.87152 16.1932C10.1915 15.7039 10.3513 15.4279 10.5208 15.0742C10.6767 14.7452 10.8125 14.4071 10.9275 14.0617C10.9663 13.9217 11.0148 13.8149 11.0245 13.8149ZM12.657 15.0934C12.681 15.0889 12.7103 15.1324 12.8408 15.3262C13.1168 15.7379 13.33 16.2902 13.3833 16.7357L13.3933 16.8324L12.7295 17.0894C11.5428 17.5494 10.448 18.0047 9.70702 18.3439C9.43629 18.4708 9.16662 18.6 8.89802 18.7314C8.66052 18.8524 8.46702 18.9444 8.46702 18.9397C8.46702 18.9347 8.61702 18.8234 8.80102 18.6877C10.2495 17.6367 11.504 16.4837 12.4438 15.3309C12.5455 15.2099 12.6375 15.0984 12.647 15.0937L12.657 15.0934ZM11.906 15.2777C11.9255 15.2969 11.3733 15.9219 10.9955 16.3047C10.0605 17.2587 9.13552 18.0047 7.98752 18.7312C7.84202 18.8232 7.71127 18.9057 7.69677 18.9152C7.66302 18.9347 7.70627 18.8862 8.21027 18.3389C8.50577 18.0219 8.78544 17.6905 9.04827 17.3459C9.23227 17.1084 9.26602 17.0747 9.53252 16.8859C10.2448 16.3722 11.8868 15.2584 11.906 15.2777Z" fill="url(#paint2_radial_160_49)"/>
</g>
<defs>
<linearGradient id="paint0_linear_160_49" x1="6.20704" y1="28.8358" x2="8.52318" y2="27.4672" gradientUnits="userSpaceOnUse">
<stop stop-color="#909CA9"/>
<stop offset="1" stop-color="#EDEDEE"/>
</linearGradient>
<linearGradient id="paint1_linear_160_49" x1="6.2602" y1="3.03458" x2="8.12382" y2="3.03458" gradientUnits="userSpaceOnUse">
<stop stop-color="#939FAB"/>
<stop offset="1" stop-color="#DCDEE1"/>
</linearGradient>
<radialGradient id="paint2_radial_160_49" cx="0" cy="0" r="1" gradientUnits="userSpaceOnUse" gradientTransform="translate(15.6844 11.6148) rotate(-171.408) scale(2.40476 4.80985)">
<stop stop-color="#EE352C"/>
<stop offset="1" stop-color="#A91D22"/>
</radialGradient>
<clipPath id="clip0_160_49">
<rect width="32" height="32" fill="white"/>
</clipPath>
</defs>
</svg>
