<svg width="32" height="33" viewBox="0 0 32 33" fill="none" xmlns="http://www.w3.org/2000/svg">
<path d="M15.9994 19.3499C17.5734 19.3499 18.8494 18.0739 18.8494 16.4999C18.8494 14.9259 17.5734 13.6499 15.9994 13.6499C14.4254 13.6499 13.1494 14.9259 13.1494 16.4999C13.1494 18.0739 14.4254 19.3499 15.9994 19.3499Z" fill="#61DAFB"/>
<path d="M26.8246 11.7999C26.2746 11.5999 25.6996 11.3999 25.0996 11.2249C25.2496 10.6249 25.3746 10.0249 25.4746 9.4499C25.9996 6.1499 25.4246 3.8249 23.8246 2.9249C23.3496 2.6499 22.8246 2.5249 22.2246 2.5249C20.4746 2.5249 18.2496 3.8249 15.9996 5.9999C13.7496 3.8249 11.5246 2.5249 9.77461 2.5249C9.17461 2.5249 8.64961 2.6499 8.17461 2.9249C6.57461 3.8499 5.99961 6.1749 6.52461 9.4499C6.62461 10.0249 6.74961 10.6249 6.89961 11.2249C6.29961 11.3999 5.72461 11.5749 5.17461 11.7999C2.04961 12.9999 0.349609 14.6499 0.349609 16.4999C0.349609 18.3499 2.07461 19.9999 5.17461 21.1999C5.72461 21.3999 6.29961 21.5999 6.89961 21.7749C6.74961 22.3749 6.62461 22.9749 6.52461 23.5499C5.99961 26.8499 6.57461 29.1749 8.17461 30.0749C8.64961 30.3499 9.17461 30.4749 9.77461 30.4749C11.5496 30.4749 13.7746 29.1749 15.9996 26.9999C18.2496 29.1749 20.4746 30.4749 22.2246 30.4749C22.8246 30.4749 23.3496 30.3499 23.8246 30.0749C25.4246 29.1499 25.9996 26.8249 25.4746 23.5499C25.3746 22.9749 25.2496 22.3749 25.0996 21.7749C25.6996 21.5999 26.2746 21.4249 26.8246 21.1999C29.9496 19.9999 31.6496 18.3499 31.6496 16.4999C31.6496 14.6499 29.9496 12.9999 26.8246 11.7999ZM23.1246 4.1749C24.1496 4.7749 24.4996 6.6249 24.0746 9.2499C23.9996 9.7749 23.8746 10.3249 23.7246 10.8999C22.4246 10.5999 21.0496 10.3999 19.5996 10.2749C18.7496 9.0749 17.8746 7.9999 16.9996 7.0249C18.8496 5.1999 20.7246 3.9499 22.2496 3.9499C22.5746 3.9499 22.8746 4.0249 23.1246 4.1749ZM20.3246 18.9999C19.8746 19.7999 19.3496 20.5999 18.7996 21.3999C17.8746 21.4749 16.9496 21.4999 15.9996 21.4999C15.0246 21.4999 14.0996 21.4749 13.1996 21.3999C12.6496 20.5999 12.1496 19.7999 11.6996 18.9999C11.2246 18.1749 10.7746 17.3249 10.3746 16.4999C10.7746 15.6749 11.2246 14.8249 11.6996 13.9999C12.1496 13.1999 12.6746 12.3999 13.2246 11.5999C14.1496 11.5249 15.0746 11.4999 16.0246 11.4999C16.9996 11.4999 17.9246 11.5249 18.8246 11.5999C19.3746 12.3999 19.8746 13.1999 20.3246 13.9999C20.7996 14.8249 21.2496 15.6749 21.6496 16.4999C21.2246 17.3249 20.7996 18.1499 20.3246 18.9999ZM22.3996 18.1749C22.7746 19.0499 23.0746 19.8999 23.3496 20.7499C22.4996 20.9499 21.5996 21.0999 20.6496 21.2249C20.9496 20.7499 21.2746 20.2499 21.5496 19.7249C21.8496 19.1999 22.1246 18.6749 22.3996 18.1749ZM15.9996 24.9499C15.3996 24.2999 14.8246 23.5999 14.2746 22.8749C14.8496 22.8999 15.4246 22.9249 15.9996 22.9249C16.5746 22.9249 17.1496 22.8999 17.7246 22.8749C17.1746 23.5999 16.5996 24.2999 15.9996 24.9499ZM11.3496 21.1999C10.3996 21.0749 9.49961 20.9249 8.64961 20.7249C8.92461 19.8999 9.22461 19.0249 9.59961 18.1499C9.87461 18.6499 10.1496 19.1749 10.4496 19.6749C10.7496 20.2249 11.0496 20.6999 11.3496 21.1999ZM9.59961 14.8249C9.22461 13.9499 8.92461 13.0999 8.64961 12.2499C9.49961 12.0499 10.3996 11.8999 11.3496 11.7749C11.0496 12.2499 10.7246 12.7499 10.4496 13.2749C10.1496 13.7999 9.87461 14.3249 9.59961 14.8249ZM15.9996 8.0499C16.5996 8.6999 17.1746 9.3999 17.7246 10.1249C17.1496 10.0999 16.5746 10.0749 15.9996 10.0749C15.4246 10.0749 14.8496 10.0999 14.2746 10.1249C14.8246 9.3999 15.3996 8.6999 15.9996 8.0499ZM21.5496 13.2999L20.6496 11.7999C21.5996 11.9249 22.4996 12.0749 23.3496 12.2749C23.0746 13.0999 22.7746 13.9749 22.3996 14.8499C22.1246 14.3249 21.8496 13.7999 21.5496 13.2999ZM7.92461 9.2499C7.49961 6.6249 7.84961 4.7749 8.87461 4.1749C9.12461 4.0249 9.42461 3.9499 9.74961 3.9499C11.2496 3.9499 13.1246 5.1749 14.9996 7.0249C14.1246 7.9749 13.2496 9.0749 12.3996 10.2749C10.9496 10.3999 9.57461 10.6249 8.27461 10.8999C8.12461 10.3249 8.02461 9.7749 7.92461 9.2499ZM1.74961 16.4999C1.74961 15.3249 3.17461 14.0749 5.67461 13.1499C6.17461 12.9499 6.72461 12.7749 7.27461 12.6249C7.67461 13.8749 8.17461 15.1999 8.77461 16.5249C8.17461 17.8499 7.64961 19.1499 7.27461 20.3999C3.82461 19.3999 1.74961 17.8999 1.74961 16.4999ZM8.87461 28.8249C7.84961 28.2249 7.49961 26.3749 7.92461 23.7499C7.99961 23.2249 8.12461 22.6749 8.27461 22.0999C9.57461 22.3999 10.9496 22.5999 12.3996 22.7249C13.2496 23.9249 14.1246 24.9999 14.9996 25.9749C13.1496 27.7999 11.2746 29.0499 9.74961 29.0499C9.42461 29.0499 9.12461 28.9749 8.87461 28.8249ZM24.0746 23.7499C24.4996 26.3749 24.1496 28.2249 23.1246 28.8249C22.8746 28.9749 22.5746 29.0499 22.2496 29.0499C20.7496 29.0499 18.8746 27.8249 16.9996 25.9749C17.8746 25.0249 18.7496 23.9249 19.5996 22.7249C21.0496 22.5999 22.4246 22.3749 23.7246 22.0999C23.8746 22.6749 23.9746 23.2249 24.0746 23.7499ZM26.3246 19.8499C25.8246 20.0499 25.2746 20.2249 24.7246 20.3749C24.3246 19.1249 23.8246 17.7999 23.2246 16.4749C23.8246 15.1499 24.3496 13.8499 24.7246 12.5999C28.1746 13.5999 30.2496 15.0999 30.2496 16.4999C30.2496 17.6749 28.7996 18.9249 26.3246 19.8499Z" fill="#61DAFB"/>
</svg>
