<svg width="32" height="32" viewBox="0 0 32 32" fill="none" xmlns="http://www.w3.org/2000/svg">
<g clip-path="url(#clip0_160_65)">
<path d="M29.113 1.66066C28.6648 2.73583 28.0911 3.75423 27.4037 4.69466C24.3922 1.68488 20.3089 -0.00607465 16.0513 -0.0065918C7.246 -0.0065918 1.48768e-08 7.24541 1.48768e-08 16.0604C-9.36182e-05 18.2372 0.441801 20.3913 1.2989 22.3922C2.156 24.3931 3.41046 26.1992 4.98625 27.7009L5.57825 28.2259C8.47149 30.6653 12.1334 32.0042 15.9178 32.0064C24.2895 32.0064 31.327 25.4464 31.923 17.0857C32.3608 12.9929 31.1603 7.81641 29.113 1.66066ZM7.26675 27.7924C7.13787 27.9512 6.97519 28.0792 6.79056 28.1672C6.60594 28.2552 6.40401 28.3009 6.1995 28.3009C5.445 28.3009 4.82775 27.6799 4.82775 26.9254C4.82775 26.1712 5.449 25.5502 6.1995 25.5502C6.512 25.5502 6.82075 25.6584 7.0625 25.8587C7.65025 26.3337 7.742 27.2047 7.26675 27.7924ZM29.0465 22.9829C25.0857 28.2634 16.6265 26.4837 11.2025 26.7379C11.2025 26.7379 10.2395 26.7964 9.27225 26.9547C9.27225 26.9547 9.63475 26.8004 10.106 26.6212C13.9125 25.2959 15.7135 25.0374 18.0273 23.8497C22.384 21.6324 26.6908 16.7812 27.5872 11.7339C25.928 16.5894 20.8997 20.7614 16.318 22.4577C13.1788 23.6164 7.5085 24.7417 7.5085 24.7417L7.27925 24.6207C3.41875 22.7412 3.30175 14.3764 10.3185 11.6757C13.3912 10.4919 16.3305 11.1422 19.6493 10.3502C23.193 9.50841 27.2913 6.84916 28.9587 3.38166C30.8265 8.92916 33.074 17.6147 29.0465 22.9829Z" fill="#77BC1F"/>
</g>
<defs>
<clipPath id="clip0_160_65">
<rect width="32" height="32" fill="white"/>
</clipPath>
</defs>
</svg>
