<svg width="32" height="33" viewBox="0 0 32 33" fill="none" xmlns="http://www.w3.org/2000/svg">
<g clip-path="url(#clip0_160_84)">
<path d="M16.001 6.90039C11.7342 6.90039 9.06848 9.03289 8.00098 13.2996C9.60048 11.1669 11.4677 10.3671 13.6005 10.9004C14.8182 11.2039 15.6885 12.0869 16.6522 13.0654C18.2207 14.6571 20.0362 16.4999 24.001 16.4999C28.2675 16.4999 30.9335 14.3671 32.001 10.0994C30.4012 12.2334 28.5342 13.0331 26.4012 12.4999C25.1837 12.1961 24.3145 11.3134 23.3495 10.3349C21.782 8.74314 19.967 6.90039 16.001 6.90039ZM8.00098 16.4999C3.73448 16.4999 1.06848 18.6326 0.000976562 22.9004C1.60048 20.7664 3.46748 19.9666 5.60048 20.4999C6.81823 20.8036 7.68848 21.6864 8.65223 22.6649C10.2207 24.2566 12.0362 26.0994 16.001 26.0994C20.2675 26.0994 22.9335 23.9669 24.001 19.7001C22.4012 21.8329 20.5342 22.6326 18.4012 22.0994C17.1837 21.7959 16.3145 20.9129 15.3495 19.9344C13.782 18.3426 11.967 16.4999 8.00098 16.4999Z" fill="#38BDF8"/>
</g>
<defs>
<clipPath id="clip0_160_84">
<rect width="32" height="32" fill="white" transform="translate(0 0.5)"/>
</clipPath>
</defs>
</svg>
