<svg width="32" height="33" viewBox="0 0 32 33" fill="none" xmlns="http://www.w3.org/2000/svg">
<g clip-path="url(#clip0_160_77)">
<path d="M5.66797 12.25H30.5855V30.6675H5.66797V12.25Z" fill="white"/>
<path d="M0.375 16.4775V32.1025H31.625V0.852539H0.375V16.4775ZM25.5575 15.2275C26.306 15.4012 26.9862 15.7927 27.5125 16.3525C27.8022 16.6542 28.0541 16.99 28.2625 17.3525C28.2625 17.3925 26.9125 18.305 26.09 18.815C26.06 18.835 25.94 18.705 25.8075 18.5075C25.6574 18.2485 25.444 18.0316 25.1874 17.8773C24.9308 17.723 24.6392 17.6362 24.34 17.625C23.3925 17.56 22.7825 18.0575 22.7875 18.875C22.7797 19.0786 22.8263 19.2805 22.9225 19.46C23.13 19.8925 23.5175 20.15 24.7325 20.675C26.97 21.6375 27.9275 22.2725 28.5225 23.175C29.1875 24.175 29.335 25.79 28.885 26.985C28.385 28.285 27.16 29.1675 25.4275 29.46C24.6362 29.5507 23.8367 29.5423 23.0475 29.435C21.8379 29.2357 20.7237 28.6549 19.8675 27.7775C19.58 27.46 19.02 26.6325 19.055 26.5725C19.1463 26.5048 19.2424 26.4438 19.3425 26.39L20.5 25.75L21.3975 25.23L21.585 25.5075C21.9014 25.9602 22.3041 26.3459 22.77 26.6425C23.77 27.1675 25.135 27.095 25.81 26.4875C26.0366 26.2649 26.178 25.9699 26.2095 25.6538C26.2411 25.3377 26.1607 25.0205 25.9825 24.7575C25.7325 24.41 25.2325 24.1175 23.835 23.5075C22.2225 22.8125 21.5275 22.3825 20.8925 21.6975C20.4961 21.2455 20.2034 20.7122 20.035 20.135C19.9094 19.4757 19.8908 18.8003 19.98 18.135C20.3125 16.5775 21.48 15.49 23.185 15.1675C23.9746 15.0698 24.7744 15.0918 25.5575 15.2325V15.2275ZM18.2225 16.5375V17.8175H14.165V29.375H11.2875V17.815H7.22V16.565C7.20733 16.134 7.21734 15.7025 7.25 15.2725C7.27 15.25 9.75 15.25 12.75 15.25H18.2075L18.2225 16.5375Z" fill="#007ACC"/>
</g>
<defs>
<clipPath id="clip0_160_77">
<rect width="32" height="32" fill="white" transform="translate(0 0.5)"/>
</clipPath>
</defs>
</svg>
