<svg width="2500" height="2873" viewBox="0 0 2500 2873" fill="none" xmlns="http://www.w3.org/2000/svg">
<g id="Frame 38">
<g id="Frame 42" clip-path="url(#clip0_602_553)">
<rect id="square" x="0.5" y="8.5" width="119" height="119" stroke="#F1F5F9"/>
<rect id="square_2" x="0.5" y="127.5" width="119" height="119" stroke="#F1F5F9"/>
<rect id="square_3" x="0.5" y="246.5" width="119" height="119" stroke="#F1F5F9"/>
<rect id="square_4" x="0.5" y="365.5" width="119" height="119" stroke="#F1F5F9"/>
<rect id="square_5" x="0.5" y="484.5" width="119" height="119" stroke="#F1F5F9"/>
<rect id="square_6" x="0.5" y="603.5" width="119" height="119" stroke="#F1F5F9"/>
<rect id="square_7" x="0.5" y="722.5" width="119" height="119" stroke="#F1F5F9"/>
<rect id="square_8" x="0.5" y="841.5" width="119" height="119" stroke="#F1F5F9"/>
<rect id="square_9" x="0.5" y="960.5" width="119" height="119" stroke="#F1F5F9"/>
<rect id="square_10" x="0.5" y="1079.5" width="119" height="119" stroke="#F1F5F9"/>
<rect id="square_11" x="0.5" y="1198.5" width="119" height="119" stroke="#F1F5F9"/>
<rect id="square_12" x="0.5" y="1317.5" width="119" height="119" stroke="#F1F5F9"/>
<rect id="square_13" x="0.5" y="1436.5" width="119" height="119" stroke="#F1F5F9"/>
<rect id="square_14" x="0.5" y="1555.5" width="119" height="119" stroke="#F1F5F9"/>
<rect id="square_15" x="0.5" y="1674.5" width="119" height="119" stroke="#F1F5F9"/>
<rect id="square_16" x="0.5" y="1793.5" width="119" height="119" stroke="#F1F5F9"/>
<rect id="square_17" x="0.5" y="1912.5" width="119" height="119" stroke="#F1F5F9"/>
<rect id="square_18" x="0.5" y="2031.5" width="119" height="119" stroke="#F1F5F9"/>
<rect id="square_19" x="0.5" y="2150.5" width="119" height="119" stroke="#F1F5F9"/>
<rect id="square_20" x="0.5" y="2269.5" width="119" height="119" stroke="#F1F5F9"/>
<rect id="square_21" x="0.5" y="2388.5" width="119" height="119" stroke="#F1F5F9"/>
<rect id="square_22" x="0.5" y="2507.5" width="119" height="119" stroke="#F1F5F9"/>
<rect id="square_23" x="0.5" y="2626.5" width="119" height="119" stroke="#F1F5F9"/>
<rect id="square_24" x="0.5" y="2745.5" width="119" height="119" stroke="#F1F5F9"/>
</g>
<g id="Frame 43" clip-path="url(#clip1_602_553)">
<rect id="square_25" x="119.5" y="8.5" width="119" height="119" stroke="#F1F5F9"/>
<rect id="square_26" x="119.5" y="127.5" width="119" height="119" stroke="#F1F5F9"/>
<rect id="square_27" x="119.5" y="246.5" width="119" height="119" stroke="#F1F5F9"/>
<rect id="square_28" x="119.5" y="365.5" width="119" height="119" stroke="#F1F5F9"/>
<rect id="square_29" x="119.5" y="484.5" width="119" height="119" stroke="#F1F5F9"/>
<rect id="square_30" x="119.5" y="603.5" width="119" height="119" stroke="#F1F5F9"/>
<rect id="square_31" x="119.5" y="722.5" width="119" height="119" stroke="#F1F5F9"/>
<rect id="square_32" x="119.5" y="841.5" width="119" height="119" stroke="#F1F5F9"/>
<rect id="square_33" x="119.5" y="960.5" width="119" height="119" stroke="#F1F5F9"/>
<rect id="square_34" x="119.5" y="1079.5" width="119" height="119" stroke="#F1F5F9"/>
<rect id="square_35" x="119.5" y="1198.5" width="119" height="119" stroke="#F1F5F9"/>
<rect id="square_36" x="119.5" y="1317.5" width="119" height="119" stroke="#F1F5F9"/>
<rect id="square_37" x="119.5" y="1436.5" width="119" height="119" stroke="#F1F5F9"/>
<rect id="square_38" x="119.5" y="1555.5" width="119" height="119" stroke="#F1F5F9"/>
<rect id="square_39" x="119.5" y="1674.5" width="119" height="119" stroke="#F1F5F9"/>
<rect id="square_40" x="119.5" y="1793.5" width="119" height="119" stroke="#F1F5F9"/>
<rect id="square_41" x="119.5" y="1912.5" width="119" height="119" stroke="#F1F5F9"/>
<rect id="square_42" x="119.5" y="2031.5" width="119" height="119" stroke="#F1F5F9"/>
<rect id="square_43" x="119.5" y="2150.5" width="119" height="119" stroke="#F1F5F9"/>
<rect id="square_44" x="119.5" y="2269.5" width="119" height="119" stroke="#F1F5F9"/>
<rect id="square_45" x="119.5" y="2388.5" width="119" height="119" stroke="#F1F5F9"/>
<rect id="square_46" x="119.5" y="2507.5" width="119" height="119" stroke="#F1F5F9"/>
<rect id="square_47" x="119.5" y="2626.5" width="119" height="119" stroke="#F1F5F9"/>
<rect id="square_48" x="119.5" y="2745.5" width="119" height="119" stroke="#F1F5F9"/>
</g>
<g id="Frame 44" clip-path="url(#clip2_602_553)">
<rect id="square_49" x="238.5" y="8.5" width="119" height="119" stroke="#F1F5F9"/>
<rect id="square_50" x="238.5" y="127.5" width="119" height="119" stroke="#F1F5F9"/>
<rect id="square_51" x="238.5" y="246.5" width="119" height="119" stroke="#F1F5F9"/>
<rect id="square_52" x="238.5" y="365.5" width="119" height="119" stroke="#F1F5F9"/>
<rect id="square_53" x="238.5" y="484.5" width="119" height="119" stroke="#F1F5F9"/>
<rect id="square_54" x="238.5" y="603.5" width="119" height="119" stroke="#F1F5F9"/>
<rect id="square_55" x="238.5" y="722.5" width="119" height="119" stroke="#F1F5F9"/>
<rect id="square_56" x="238.5" y="841.5" width="119" height="119" stroke="#F1F5F9"/>
<rect id="square_57" x="238.5" y="960.5" width="119" height="119" stroke="#F1F5F9"/>
<rect id="square_58" x="238.5" y="1079.5" width="119" height="119" stroke="#F1F5F9"/>
<rect id="square_59" x="238.5" y="1198.5" width="119" height="119" stroke="#F1F5F9"/>
<rect id="square_60" x="238.5" y="1317.5" width="119" height="119" stroke="#F1F5F9"/>
<rect id="square_61" x="238.5" y="1436.5" width="119" height="119" stroke="#F1F5F9"/>
<rect id="square_62" x="238.5" y="1555.5" width="119" height="119" stroke="#F1F5F9"/>
<rect id="square_63" x="238.5" y="1674.5" width="119" height="119" stroke="#F1F5F9"/>
<rect id="square_64" x="238.5" y="1793.5" width="119" height="119" stroke="#F1F5F9"/>
<rect id="square_65" x="238.5" y="1912.5" width="119" height="119" stroke="#F1F5F9"/>
<rect id="square_66" x="238.5" y="2031.5" width="119" height="119" stroke="#F1F5F9"/>
<rect id="square_67" x="238.5" y="2150.5" width="119" height="119" stroke="#F1F5F9"/>
<rect id="square_68" x="238.5" y="2269.5" width="119" height="119" stroke="#F1F5F9"/>
<rect id="square_69" x="238.5" y="2388.5" width="119" height="119" stroke="#F1F5F9"/>
<rect id="square_70" x="238.5" y="2507.5" width="119" height="119" stroke="#F1F5F9"/>
<rect id="square_71" x="238.5" y="2626.5" width="119" height="119" stroke="#F1F5F9"/>
<rect id="square_72" x="238.5" y="2745.5" width="119" height="119" stroke="#F1F5F9"/>
</g>
<g id="Frame 45" clip-path="url(#clip3_602_553)">
<rect id="square_73" x="357.5" y="8.5" width="119" height="119" stroke="#F1F5F9"/>
<rect id="square_74" x="357.5" y="127.5" width="119" height="119" stroke="#F1F5F9"/>
<rect id="square_75" x="357.5" y="246.5" width="119" height="119" stroke="#F1F5F9"/>
<rect id="square_76" x="357.5" y="365.5" width="119" height="119" stroke="#F1F5F9"/>
<rect id="square_77" x="357.5" y="484.5" width="119" height="119" stroke="#F1F5F9"/>
<rect id="square_78" x="357.5" y="603.5" width="119" height="119" stroke="#F1F5F9"/>
<rect id="square_79" x="357.5" y="722.5" width="119" height="119" stroke="#F1F5F9"/>
<rect id="square_80" x="357.5" y="841.5" width="119" height="119" stroke="#F1F5F9"/>
<rect id="square_81" x="357.5" y="960.5" width="119" height="119" stroke="#F1F5F9"/>
<rect id="square_82" x="357.5" y="1079.5" width="119" height="119" stroke="#F1F5F9"/>
<rect id="square_83" x="357.5" y="1198.5" width="119" height="119" stroke="#F1F5F9"/>
<rect id="square_84" x="357.5" y="1317.5" width="119" height="119" stroke="#F1F5F9"/>
<rect id="square_85" x="357.5" y="1436.5" width="119" height="119" stroke="#F1F5F9"/>
<rect id="square_86" x="357.5" y="1555.5" width="119" height="119" stroke="#F1F5F9"/>
<rect id="square_87" x="357.5" y="1674.5" width="119" height="119" stroke="#F1F5F9"/>
<rect id="square_88" x="357.5" y="1793.5" width="119" height="119" stroke="#F1F5F9"/>
<rect id="square_89" x="357.5" y="1912.5" width="119" height="119" stroke="#F1F5F9"/>
<rect id="square_90" x="357.5" y="2031.5" width="119" height="119" stroke="#F1F5F9"/>
<rect id="square_91" x="357.5" y="2150.5" width="119" height="119" stroke="#F1F5F9"/>
<rect id="square_92" x="357.5" y="2269.5" width="119" height="119" stroke="#F1F5F9"/>
<rect id="square_93" x="357.5" y="2388.5" width="119" height="119" stroke="#F1F5F9"/>
<rect id="square_94" x="357.5" y="2507.5" width="119" height="119" stroke="#F1F5F9"/>
<rect id="square_95" x="357.5" y="2626.5" width="119" height="119" stroke="#F1F5F9"/>
<rect id="square_96" x="357.5" y="2745.5" width="119" height="119" stroke="#F1F5F9"/>
</g>
<g id="Frame 46" clip-path="url(#clip4_602_553)">
<rect id="square_97" x="476.5" y="8.5" width="119" height="119" stroke="#F1F5F9"/>
<rect id="square_98" x="476.5" y="127.5" width="119" height="119" stroke="#F1F5F9"/>
<rect id="square_99" x="476.5" y="246.5" width="119" height="119" stroke="#F1F5F9"/>
<rect id="square_100" x="476.5" y="365.5" width="119" height="119" stroke="#F1F5F9"/>
<rect id="square_101" x="476.5" y="484.5" width="119" height="119" stroke="#F1F5F9"/>
<rect id="square_102" x="476.5" y="603.5" width="119" height="119" stroke="#F1F5F9"/>
<rect id="square_103" x="476.5" y="722.5" width="119" height="119" stroke="#F1F5F9"/>
<rect id="square_104" x="476.5" y="841.5" width="119" height="119" stroke="#F1F5F9"/>
<rect id="square_105" x="476.5" y="960.5" width="119" height="119" stroke="#F1F5F9"/>
<rect id="square_106" x="476.5" y="1079.5" width="119" height="119" stroke="#F1F5F9"/>
<rect id="square_107" x="476.5" y="1198.5" width="119" height="119" stroke="#F1F5F9"/>
<rect id="square_108" x="476.5" y="1317.5" width="119" height="119" stroke="#F1F5F9"/>
<rect id="square_109" x="476.5" y="1436.5" width="119" height="119" stroke="#F1F5F9"/>
<rect id="square_110" x="476.5" y="1555.5" width="119" height="119" stroke="#F1F5F9"/>
<rect id="square_111" x="476.5" y="1674.5" width="119" height="119" stroke="#F1F5F9"/>
<rect id="square_112" x="476.5" y="1793.5" width="119" height="119" stroke="#F1F5F9"/>
<rect id="square_113" x="476.5" y="1912.5" width="119" height="119" stroke="#F1F5F9"/>
<rect id="square_114" x="476.5" y="2031.5" width="119" height="119" stroke="#F1F5F9"/>
<rect id="square_115" x="476.5" y="2150.5" width="119" height="119" stroke="#F1F5F9"/>
<rect id="square_116" x="476.5" y="2269.5" width="119" height="119" stroke="#F1F5F9"/>
<rect id="square_117" x="476.5" y="2388.5" width="119" height="119" stroke="#F1F5F9"/>
<rect id="square_118" x="476.5" y="2507.5" width="119" height="119" stroke="#F1F5F9"/>
<rect id="square_119" x="476.5" y="2626.5" width="119" height="119" stroke="#F1F5F9"/>
<rect id="square_120" x="476.5" y="2745.5" width="119" height="119" stroke="#F1F5F9"/>
</g>
<g id="Frame 47" clip-path="url(#clip5_602_553)">
<rect id="square_121" x="595.5" y="8.5" width="119" height="119" stroke="#F1F5F9"/>
<rect id="square_122" x="595.5" y="127.5" width="119" height="119" stroke="#F1F5F9"/>
<rect id="square_123" x="595.5" y="246.5" width="119" height="119" stroke="#F1F5F9"/>
<rect id="square_124" x="595.5" y="365.5" width="119" height="119" stroke="#F1F5F9"/>
<rect id="square_125" x="595.5" y="484.5" width="119" height="119" stroke="#F1F5F9"/>
<rect id="square_126" x="595.5" y="603.5" width="119" height="119" stroke="#F1F5F9"/>
<rect id="square_127" x="595.5" y="722.5" width="119" height="119" stroke="#F1F5F9"/>
<rect id="square_128" x="595.5" y="841.5" width="119" height="119" stroke="#F1F5F9"/>
<rect id="square_129" x="595.5" y="960.5" width="119" height="119" stroke="#F1F5F9"/>
<rect id="square_130" x="595.5" y="1079.5" width="119" height="119" stroke="#F1F5F9"/>
<rect id="square_131" x="595.5" y="1198.5" width="119" height="119" stroke="#F1F5F9"/>
<rect id="square_132" x="595.5" y="1317.5" width="119" height="119" stroke="#F1F5F9"/>
<rect id="square_133" x="595.5" y="1436.5" width="119" height="119" stroke="#F1F5F9"/>
<rect id="square_134" x="595.5" y="1555.5" width="119" height="119" stroke="#F1F5F9"/>
<rect id="square_135" x="595.5" y="1674.5" width="119" height="119" stroke="#F1F5F9"/>
<rect id="square_136" x="595.5" y="1793.5" width="119" height="119" stroke="#F1F5F9"/>
<rect id="square_137" x="595.5" y="1912.5" width="119" height="119" stroke="#F1F5F9"/>
<rect id="square_138" x="595.5" y="2031.5" width="119" height="119" stroke="#F1F5F9"/>
<rect id="square_139" x="595.5" y="2150.5" width="119" height="119" stroke="#F1F5F9"/>
<rect id="square_140" x="595.5" y="2269.5" width="119" height="119" stroke="#F1F5F9"/>
<rect id="square_141" x="595.5" y="2388.5" width="119" height="119" stroke="#F1F5F9"/>
<rect id="square_142" x="595.5" y="2507.5" width="119" height="119" stroke="#F1F5F9"/>
<rect id="square_143" x="595.5" y="2626.5" width="119" height="119" stroke="#F1F5F9"/>
<rect id="square_144" x="595.5" y="2745.5" width="119" height="119" stroke="#F1F5F9"/>
</g>
<g id="Frame 48" clip-path="url(#clip6_602_553)">
<rect id="square_145" x="714.5" y="8.5" width="119" height="119" stroke="#F1F5F9"/>
<rect id="square_146" x="714.5" y="127.5" width="119" height="119" stroke="#F1F5F9"/>
<rect id="square_147" x="714.5" y="246.5" width="119" height="119" stroke="#F1F5F9"/>
<rect id="square_148" x="714.5" y="365.5" width="119" height="119" stroke="#F1F5F9"/>
<rect id="square_149" x="714.5" y="484.5" width="119" height="119" stroke="#F1F5F9"/>
<rect id="square_150" x="714.5" y="603.5" width="119" height="119" stroke="#F1F5F9"/>
<rect id="square_151" x="714.5" y="722.5" width="119" height="119" stroke="#F1F5F9"/>
<rect id="square_152" x="714.5" y="841.5" width="119" height="119" stroke="#F1F5F9"/>
<rect id="square_153" x="714.5" y="960.5" width="119" height="119" stroke="#F1F5F9"/>
<rect id="square_154" x="714.5" y="1079.5" width="119" height="119" stroke="#F1F5F9"/>
<rect id="square_155" x="714.5" y="1198.5" width="119" height="119" stroke="#F1F5F9"/>
<rect id="square_156" x="714.5" y="1317.5" width="119" height="119" stroke="#F1F5F9"/>
<rect id="square_157" x="714.5" y="1436.5" width="119" height="119" stroke="#F1F5F9"/>
<rect id="square_158" x="714.5" y="1555.5" width="119" height="119" stroke="#F1F5F9"/>
<rect id="square_159" x="714.5" y="1674.5" width="119" height="119" stroke="#F1F5F9"/>
<rect id="square_160" x="714.5" y="1793.5" width="119" height="119" stroke="#F1F5F9"/>
<rect id="square_161" x="714.5" y="1912.5" width="119" height="119" stroke="#F1F5F9"/>
<rect id="square_162" x="714.5" y="2031.5" width="119" height="119" stroke="#F1F5F9"/>
<rect id="square_163" x="714.5" y="2150.5" width="119" height="119" stroke="#F1F5F9"/>
<rect id="square_164" x="714.5" y="2269.5" width="119" height="119" stroke="#F1F5F9"/>
<rect id="square_165" x="714.5" y="2388.5" width="119" height="119" stroke="#F1F5F9"/>
<rect id="square_166" x="714.5" y="2507.5" width="119" height="119" stroke="#F1F5F9"/>
<rect id="square_167" x="714.5" y="2626.5" width="119" height="119" stroke="#F1F5F9"/>
<rect id="square_168" x="714.5" y="2745.5" width="119" height="119" stroke="#F1F5F9"/>
</g>
<g id="Frame 49" clip-path="url(#clip7_602_553)">
<rect id="square_169" x="833.5" y="8.5" width="119" height="119" stroke="#F1F5F9"/>
<rect id="square_170" x="833.5" y="127.5" width="119" height="119" stroke="#F1F5F9"/>
<rect id="square_171" x="833.5" y="246.5" width="119" height="119" stroke="#F1F5F9"/>
<rect id="square_172" x="833.5" y="365.5" width="119" height="119" stroke="#F1F5F9"/>
<rect id="square_173" x="833.5" y="484.5" width="119" height="119" stroke="#F1F5F9"/>
<rect id="square_174" x="833.5" y="603.5" width="119" height="119" stroke="#F1F5F9"/>
<rect id="square_175" x="833.5" y="722.5" width="119" height="119" stroke="#F1F5F9"/>
<rect id="square_176" x="833.5" y="841.5" width="119" height="119" stroke="#F1F5F9"/>
<rect id="square_177" x="833.5" y="960.5" width="119" height="119" stroke="#F1F5F9"/>
<rect id="square_178" x="833.5" y="1079.5" width="119" height="119" stroke="#F1F5F9"/>
<rect id="square_179" x="833.5" y="1198.5" width="119" height="119" stroke="#F1F5F9"/>
<rect id="square_180" x="833.5" y="1317.5" width="119" height="119" stroke="#F1F5F9"/>
<rect id="square_181" x="833.5" y="1436.5" width="119" height="119" stroke="#F1F5F9"/>
<rect id="square_182" x="833.5" y="1555.5" width="119" height="119" stroke="#F1F5F9"/>
<rect id="square_183" x="833.5" y="1674.5" width="119" height="119" stroke="#F1F5F9"/>
<rect id="square_184" x="833.5" y="1793.5" width="119" height="119" stroke="#F1F5F9"/>
<rect id="square_185" x="833.5" y="1912.5" width="119" height="119" stroke="#F1F5F9"/>
<rect id="square_186" x="833.5" y="2031.5" width="119" height="119" stroke="#F1F5F9"/>
<rect id="square_187" x="833.5" y="2150.5" width="119" height="119" stroke="#F1F5F9"/>
<rect id="square_188" x="833.5" y="2269.5" width="119" height="119" stroke="#F1F5F9"/>
<rect id="square_189" x="833.5" y="2388.5" width="119" height="119" stroke="#F1F5F9"/>
<rect id="square_190" x="833.5" y="2507.5" width="119" height="119" stroke="#F1F5F9"/>
<rect id="square_191" x="833.5" y="2626.5" width="119" height="119" stroke="#F1F5F9"/>
<rect id="square_192" x="833.5" y="2745.5" width="119" height="119" stroke="#F1F5F9"/>
</g>
<g id="Frame 50" clip-path="url(#clip8_602_553)">
<rect id="square_193" x="952.5" y="8.5" width="119" height="119" stroke="#F1F5F9"/>
<rect id="square_194" x="952.5" y="127.5" width="119" height="119" stroke="#F1F5F9"/>
<rect id="square_195" x="952.5" y="246.5" width="119" height="119" stroke="#F1F5F9"/>
<rect id="square_196" x="952.5" y="365.5" width="119" height="119" stroke="#F1F5F9"/>
<rect id="square_197" x="952.5" y="484.5" width="119" height="119" stroke="#F1F5F9"/>
<rect id="square_198" x="952.5" y="603.5" width="119" height="119" stroke="#F1F5F9"/>
<rect id="square_199" x="952.5" y="722.5" width="119" height="119" stroke="#F1F5F9"/>
<rect id="square_200" x="952.5" y="841.5" width="119" height="119" stroke="#F1F5F9"/>
<rect id="square_201" x="952.5" y="960.5" width="119" height="119" stroke="#F1F5F9"/>
<rect id="square_202" x="952.5" y="1079.5" width="119" height="119" stroke="#F1F5F9"/>
<rect id="square_203" x="952.5" y="1198.5" width="119" height="119" stroke="#F1F5F9"/>
<rect id="square_204" x="952.5" y="1317.5" width="119" height="119" stroke="#F1F5F9"/>
<rect id="square_205" x="952.5" y="1436.5" width="119" height="119" stroke="#F1F5F9"/>
<rect id="square_206" x="952.5" y="1555.5" width="119" height="119" stroke="#F1F5F9"/>
<rect id="square_207" x="952.5" y="1674.5" width="119" height="119" stroke="#F1F5F9"/>
<rect id="square_208" x="952.5" y="1793.5" width="119" height="119" stroke="#F1F5F9"/>
<rect id="square_209" x="952.5" y="1912.5" width="119" height="119" stroke="#F1F5F9"/>
<rect id="square_210" x="952.5" y="2031.5" width="119" height="119" stroke="#F1F5F9"/>
<rect id="square_211" x="952.5" y="2150.5" width="119" height="119" stroke="#F1F5F9"/>
<rect id="square_212" x="952.5" y="2269.5" width="119" height="119" stroke="#F1F5F9"/>
<rect id="square_213" x="952.5" y="2388.5" width="119" height="119" stroke="#F1F5F9"/>
<rect id="square_214" x="952.5" y="2507.5" width="119" height="119" stroke="#F1F5F9"/>
<rect id="square_215" x="952.5" y="2626.5" width="119" height="119" stroke="#F1F5F9"/>
<rect id="square_216" x="952.5" y="2745.5" width="119" height="119" stroke="#F1F5F9"/>
</g>
<g id="Frame 51" clip-path="url(#clip9_602_553)">
<rect id="square_217" x="1071.5" y="8.5" width="119" height="119" stroke="#F1F5F9"/>
<rect id="square_218" x="1071.5" y="127.5" width="119" height="119" stroke="#F1F5F9"/>
<rect id="square_219" x="1071.5" y="246.5" width="119" height="119" stroke="#F1F5F9"/>
<rect id="square_220" x="1071.5" y="365.5" width="119" height="119" stroke="#F1F5F9"/>
<rect id="square_221" x="1071.5" y="484.5" width="119" height="119" stroke="#F1F5F9"/>
<rect id="square_222" x="1071.5" y="603.5" width="119" height="119" stroke="#F1F5F9"/>
<rect id="square_223" x="1071.5" y="722.5" width="119" height="119" stroke="#F1F5F9"/>
<rect id="square_224" x="1071.5" y="841.5" width="119" height="119" stroke="#F1F5F9"/>
<rect id="square_225" x="1071.5" y="960.5" width="119" height="119" stroke="#F1F5F9"/>
<rect id="square_226" x="1071.5" y="1079.5" width="119" height="119" stroke="#F1F5F9"/>
<rect id="square_227" x="1071.5" y="1198.5" width="119" height="119" stroke="#F1F5F9"/>
<rect id="square_228" x="1071.5" y="1317.5" width="119" height="119" stroke="#F1F5F9"/>
<rect id="square_229" x="1071.5" y="1436.5" width="119" height="119" stroke="#F1F5F9"/>
<rect id="square_230" x="1071.5" y="1555.5" width="119" height="119" stroke="#F1F5F9"/>
<rect id="square_231" x="1071.5" y="1674.5" width="119" height="119" stroke="#F1F5F9"/>
<rect id="square_232" x="1071.5" y="1793.5" width="119" height="119" stroke="#F1F5F9"/>
<rect id="square_233" x="1071.5" y="1912.5" width="119" height="119" stroke="#F1F5F9"/>
<rect id="square_234" x="1071.5" y="2031.5" width="119" height="119" stroke="#F1F5F9"/>
<rect id="square_235" x="1071.5" y="2150.5" width="119" height="119" stroke="#F1F5F9"/>
<rect id="square_236" x="1071.5" y="2269.5" width="119" height="119" stroke="#F1F5F9"/>
<rect id="square_237" x="1071.5" y="2388.5" width="119" height="119" stroke="#F1F5F9"/>
<rect id="square_238" x="1071.5" y="2507.5" width="119" height="119" stroke="#F1F5F9"/>
<rect id="square_239" x="1071.5" y="2626.5" width="119" height="119" stroke="#F1F5F9"/>
<rect id="square_240" x="1071.5" y="2745.5" width="119" height="119" stroke="#F1F5F9"/>
</g>
<g id="Frame 52" clip-path="url(#clip10_602_553)">
<rect id="square_241" x="1190.5" y="8.5" width="119" height="119" stroke="#F1F5F9"/>
<rect id="square_242" x="1190.5" y="127.5" width="119" height="119" stroke="#F1F5F9"/>
<rect id="square_243" x="1190.5" y="246.5" width="119" height="119" stroke="#F1F5F9"/>
<rect id="square_244" x="1190.5" y="365.5" width="119" height="119" stroke="#F1F5F9"/>
<rect id="square_245" x="1190.5" y="484.5" width="119" height="119" stroke="#F1F5F9"/>
<rect id="square_246" x="1190.5" y="603.5" width="119" height="119" stroke="#F1F5F9"/>
<rect id="square_247" x="1190.5" y="722.5" width="119" height="119" stroke="#F1F5F9"/>
<rect id="square_248" x="1190.5" y="841.5" width="119" height="119" stroke="#F1F5F9"/>
<rect id="square_249" x="1190.5" y="960.5" width="119" height="119" stroke="#F1F5F9"/>
<rect id="square_250" x="1190.5" y="1079.5" width="119" height="119" stroke="#F1F5F9"/>
<rect id="square_251" x="1190.5" y="1198.5" width="119" height="119" stroke="#F1F5F9"/>
<rect id="square_252" x="1190.5" y="1317.5" width="119" height="119" stroke="#F1F5F9"/>
<rect id="square_253" x="1190.5" y="1436.5" width="119" height="119" stroke="#F1F5F9"/>
<rect id="square_254" x="1190.5" y="1555.5" width="119" height="119" stroke="#F1F5F9"/>
<rect id="square_255" x="1190.5" y="1674.5" width="119" height="119" stroke="#F1F5F9"/>
<rect id="square_256" x="1190.5" y="1793.5" width="119" height="119" stroke="#F1F5F9"/>
<rect id="square_257" x="1190.5" y="1912.5" width="119" height="119" stroke="#F1F5F9"/>
<rect id="square_258" x="1190.5" y="2031.5" width="119" height="119" stroke="#F1F5F9"/>
<rect id="square_259" x="1190.5" y="2150.5" width="119" height="119" stroke="#F1F5F9"/>
<rect id="square_260" x="1190.5" y="2269.5" width="119" height="119" stroke="#F1F5F9"/>
<rect id="square_261" x="1190.5" y="2388.5" width="119" height="119" stroke="#F1F5F9"/>
<rect id="square_262" x="1190.5" y="2507.5" width="119" height="119" stroke="#F1F5F9"/>
<rect id="square_263" x="1190.5" y="2626.5" width="119" height="119" stroke="#F1F5F9"/>
<rect id="square_264" x="1190.5" y="2745.5" width="119" height="119" stroke="#F1F5F9"/>
</g>
<g id="Frame 53" clip-path="url(#clip11_602_553)">
<rect id="square_265" x="1309.5" y="8.5" width="119" height="119" stroke="#F1F5F9"/>
<rect id="square_266" x="1309.5" y="127.5" width="119" height="119" stroke="#F1F5F9"/>
<rect id="square_267" x="1309.5" y="246.5" width="119" height="119" stroke="#F1F5F9"/>
<rect id="square_268" x="1309.5" y="365.5" width="119" height="119" stroke="#F1F5F9"/>
<rect id="square_269" x="1309.5" y="484.5" width="119" height="119" stroke="#F1F5F9"/>
<rect id="square_270" x="1309.5" y="603.5" width="119" height="119" stroke="#F1F5F9"/>
<rect id="square_271" x="1309.5" y="722.5" width="119" height="119" stroke="#F1F5F9"/>
<rect id="square_272" x="1309.5" y="841.5" width="119" height="119" stroke="#F1F5F9"/>
<rect id="square_273" x="1309.5" y="960.5" width="119" height="119" stroke="#F1F5F9"/>
<rect id="square_274" x="1309.5" y="1079.5" width="119" height="119" stroke="#F1F5F9"/>
<rect id="square_275" x="1309.5" y="1198.5" width="119" height="119" stroke="#F1F5F9"/>
<rect id="square_276" x="1309.5" y="1317.5" width="119" height="119" stroke="#F1F5F9"/>
<rect id="square_277" x="1309.5" y="1436.5" width="119" height="119" stroke="#F1F5F9"/>
<rect id="square_278" x="1309.5" y="1555.5" width="119" height="119" stroke="#F1F5F9"/>
<rect id="square_279" x="1309.5" y="1674.5" width="119" height="119" stroke="#F1F5F9"/>
<rect id="square_280" x="1309.5" y="1793.5" width="119" height="119" stroke="#F1F5F9"/>
<rect id="square_281" x="1309.5" y="1912.5" width="119" height="119" stroke="#F1F5F9"/>
<rect id="square_282" x="1309.5" y="2031.5" width="119" height="119" stroke="#F1F5F9"/>
<rect id="square_283" x="1309.5" y="2150.5" width="119" height="119" stroke="#F1F5F9"/>
<rect id="square_284" x="1309.5" y="2269.5" width="119" height="119" stroke="#F1F5F9"/>
<rect id="square_285" x="1309.5" y="2388.5" width="119" height="119" stroke="#F1F5F9"/>
<rect id="square_286" x="1309.5" y="2507.5" width="119" height="119" stroke="#F1F5F9"/>
<rect id="square_287" x="1309.5" y="2626.5" width="119" height="119" stroke="#F1F5F9"/>
<rect id="square_288" x="1309.5" y="2745.5" width="119" height="119" stroke="#F1F5F9"/>
</g>
<g id="Frame 54" clip-path="url(#clip12_602_553)">
<rect id="square_289" x="1428.5" y="8.5" width="119" height="119" stroke="#F1F5F9"/>
<rect id="square_290" x="1428.5" y="127.5" width="119" height="119" stroke="#F1F5F9"/>
<rect id="square_291" x="1428.5" y="246.5" width="119" height="119" stroke="#F1F5F9"/>
<rect id="square_292" x="1428.5" y="365.5" width="119" height="119" stroke="#F1F5F9"/>
<rect id="square_293" x="1428.5" y="484.5" width="119" height="119" stroke="#F1F5F9"/>
<rect id="square_294" x="1428.5" y="603.5" width="119" height="119" stroke="#F1F5F9"/>
<rect id="square_295" x="1428.5" y="722.5" width="119" height="119" stroke="#F1F5F9"/>
<rect id="square_296" x="1428.5" y="841.5" width="119" height="119" stroke="#F1F5F9"/>
<rect id="square_297" x="1428.5" y="960.5" width="119" height="119" stroke="#F1F5F9"/>
<rect id="square_298" x="1428.5" y="1079.5" width="119" height="119" stroke="#F1F5F9"/>
<rect id="square_299" x="1428.5" y="1198.5" width="119" height="119" stroke="#F1F5F9"/>
<rect id="square_300" x="1428.5" y="1317.5" width="119" height="119" stroke="#F1F5F9"/>
<rect id="square_301" x="1428.5" y="1436.5" width="119" height="119" stroke="#F1F5F9"/>
<rect id="square_302" x="1428.5" y="1555.5" width="119" height="119" stroke="#F1F5F9"/>
<rect id="square_303" x="1428.5" y="1674.5" width="119" height="119" stroke="#F1F5F9"/>
<rect id="square_304" x="1428.5" y="1793.5" width="119" height="119" stroke="#F1F5F9"/>
<rect id="square_305" x="1428.5" y="1912.5" width="119" height="119" stroke="#F1F5F9"/>
<rect id="square_306" x="1428.5" y="2031.5" width="119" height="119" stroke="#F1F5F9"/>
<rect id="square_307" x="1428.5" y="2150.5" width="119" height="119" stroke="#F1F5F9"/>
<rect id="square_308" x="1428.5" y="2269.5" width="119" height="119" stroke="#F1F5F9"/>
<rect id="square_309" x="1428.5" y="2388.5" width="119" height="119" stroke="#F1F5F9"/>
<rect id="square_310" x="1428.5" y="2507.5" width="119" height="119" stroke="#F1F5F9"/>
<rect id="square_311" x="1428.5" y="2626.5" width="119" height="119" stroke="#F1F5F9"/>
<rect id="square_312" x="1428.5" y="2745.5" width="119" height="119" stroke="#F1F5F9"/>
</g>
<g id="Frame 55" clip-path="url(#clip13_602_553)">
<rect id="square_313" x="1547.5" y="8.5" width="119" height="119" stroke="#F1F5F9"/>
<rect id="square_314" x="1547.5" y="127.5" width="119" height="119" stroke="#F1F5F9"/>
<rect id="square_315" x="1547.5" y="246.5" width="119" height="119" stroke="#F1F5F9"/>
<rect id="square_316" x="1547.5" y="365.5" width="119" height="119" stroke="#F1F5F9"/>
<rect id="square_317" x="1547.5" y="484.5" width="119" height="119" stroke="#F1F5F9"/>
<rect id="square_318" x="1547.5" y="603.5" width="119" height="119" stroke="#F1F5F9"/>
<rect id="square_319" x="1547.5" y="722.5" width="119" height="119" stroke="#F1F5F9"/>
<rect id="square_320" x="1547.5" y="841.5" width="119" height="119" stroke="#F1F5F9"/>
<rect id="square_321" x="1547.5" y="960.5" width="119" height="119" stroke="#F1F5F9"/>
<rect id="square_322" x="1547.5" y="1079.5" width="119" height="119" stroke="#F1F5F9"/>
<rect id="square_323" x="1547.5" y="1198.5" width="119" height="119" stroke="#F1F5F9"/>
<rect id="square_324" x="1547.5" y="1317.5" width="119" height="119" stroke="#F1F5F9"/>
<rect id="square_325" x="1547.5" y="1436.5" width="119" height="119" stroke="#F1F5F9"/>
<rect id="square_326" x="1547.5" y="1555.5" width="119" height="119" stroke="#F1F5F9"/>
<rect id="square_327" x="1547.5" y="1674.5" width="119" height="119" stroke="#F1F5F9"/>
<rect id="square_328" x="1547.5" y="1793.5" width="119" height="119" stroke="#F1F5F9"/>
<rect id="square_329" x="1547.5" y="1912.5" width="119" height="119" stroke="#F1F5F9"/>
<rect id="square_330" x="1547.5" y="2031.5" width="119" height="119" stroke="#F1F5F9"/>
<rect id="square_331" x="1547.5" y="2150.5" width="119" height="119" stroke="#F1F5F9"/>
<rect id="square_332" x="1547.5" y="2269.5" width="119" height="119" stroke="#F1F5F9"/>
<rect id="square_333" x="1547.5" y="2388.5" width="119" height="119" stroke="#F1F5F9"/>
<rect id="square_334" x="1547.5" y="2507.5" width="119" height="119" stroke="#F1F5F9"/>
<rect id="square_335" x="1547.5" y="2626.5" width="119" height="119" stroke="#F1F5F9"/>
<rect id="square_336" x="1547.5" y="2745.5" width="119" height="119" stroke="#F1F5F9"/>
</g>
<g id="Frame 56" clip-path="url(#clip14_602_553)">
<rect id="square_337" x="1666.5" y="8.5" width="119" height="119" stroke="#F1F5F9"/>
<rect id="square_338" x="1666.5" y="127.5" width="119" height="119" stroke="#F1F5F9"/>
<rect id="square_339" x="1666.5" y="246.5" width="119" height="119" stroke="#F1F5F9"/>
<rect id="square_340" x="1666.5" y="365.5" width="119" height="119" stroke="#F1F5F9"/>
<rect id="square_341" x="1666.5" y="484.5" width="119" height="119" stroke="#F1F5F9"/>
<rect id="square_342" x="1666.5" y="603.5" width="119" height="119" stroke="#F1F5F9"/>
<rect id="square_343" x="1666.5" y="722.5" width="119" height="119" stroke="#F1F5F9"/>
<rect id="square_344" x="1666.5" y="841.5" width="119" height="119" stroke="#F1F5F9"/>
<rect id="square_345" x="1666.5" y="960.5" width="119" height="119" stroke="#F1F5F9"/>
<rect id="square_346" x="1666.5" y="1079.5" width="119" height="119" stroke="#F1F5F9"/>
<rect id="square_347" x="1666.5" y="1198.5" width="119" height="119" stroke="#F1F5F9"/>
<rect id="square_348" x="1666.5" y="1317.5" width="119" height="119" stroke="#F1F5F9"/>
<rect id="square_349" x="1666.5" y="1436.5" width="119" height="119" stroke="#F1F5F9"/>
<rect id="square_350" x="1666.5" y="1555.5" width="119" height="119" stroke="#F1F5F9"/>
<rect id="square_351" x="1666.5" y="1674.5" width="119" height="119" stroke="#F1F5F9"/>
<rect id="square_352" x="1666.5" y="1793.5" width="119" height="119" stroke="#F1F5F9"/>
<rect id="square_353" x="1666.5" y="1912.5" width="119" height="119" stroke="#F1F5F9"/>
<rect id="square_354" x="1666.5" y="2031.5" width="119" height="119" stroke="#F1F5F9"/>
<rect id="square_355" x="1666.5" y="2150.5" width="119" height="119" stroke="#F1F5F9"/>
<rect id="square_356" x="1666.5" y="2269.5" width="119" height="119" stroke="#F1F5F9"/>
<rect id="square_357" x="1666.5" y="2388.5" width="119" height="119" stroke="#F1F5F9"/>
<rect id="square_358" x="1666.5" y="2507.5" width="119" height="119" stroke="#F1F5F9"/>
<rect id="square_359" x="1666.5" y="2626.5" width="119" height="119" stroke="#F1F5F9"/>
<rect id="square_360" x="1666.5" y="2745.5" width="119" height="119" stroke="#F1F5F9"/>
</g>
<g id="Frame 57" clip-path="url(#clip15_602_553)">
<rect id="square_361" x="1785.5" y="8.5" width="119" height="119" stroke="#F1F5F9"/>
<rect id="square_362" x="1785.5" y="127.5" width="119" height="119" stroke="#F1F5F9"/>
<rect id="square_363" x="1785.5" y="246.5" width="119" height="119" stroke="#F1F5F9"/>
<rect id="square_364" x="1785.5" y="365.5" width="119" height="119" stroke="#F1F5F9"/>
<rect id="square_365" x="1785.5" y="484.5" width="119" height="119" stroke="#F1F5F9"/>
<rect id="square_366" x="1785.5" y="603.5" width="119" height="119" stroke="#F1F5F9"/>
<rect id="square_367" x="1785.5" y="722.5" width="119" height="119" stroke="#F1F5F9"/>
<rect id="square_368" x="1785.5" y="841.5" width="119" height="119" stroke="#F1F5F9"/>
<rect id="square_369" x="1785.5" y="960.5" width="119" height="119" stroke="#F1F5F9"/>
<rect id="square_370" x="1785.5" y="1079.5" width="119" height="119" stroke="#F1F5F9"/>
<rect id="square_371" x="1785.5" y="1198.5" width="119" height="119" stroke="#F1F5F9"/>
<rect id="square_372" x="1785.5" y="1317.5" width="119" height="119" stroke="#F1F5F9"/>
<rect id="square_373" x="1785.5" y="1436.5" width="119" height="119" stroke="#F1F5F9"/>
<rect id="square_374" x="1785.5" y="1555.5" width="119" height="119" stroke="#F1F5F9"/>
<rect id="square_375" x="1785.5" y="1674.5" width="119" height="119" stroke="#F1F5F9"/>
<rect id="square_376" x="1785.5" y="1793.5" width="119" height="119" stroke="#F1F5F9"/>
<rect id="square_377" x="1785.5" y="1912.5" width="119" height="119" stroke="#F1F5F9"/>
<rect id="square_378" x="1785.5" y="2031.5" width="119" height="119" stroke="#F1F5F9"/>
<rect id="square_379" x="1785.5" y="2150.5" width="119" height="119" stroke="#F1F5F9"/>
<rect id="square_380" x="1785.5" y="2269.5" width="119" height="119" stroke="#F1F5F9"/>
<rect id="square_381" x="1785.5" y="2388.5" width="119" height="119" stroke="#F1F5F9"/>
<rect id="square_382" x="1785.5" y="2507.5" width="119" height="119" stroke="#F1F5F9"/>
<rect id="square_383" x="1785.5" y="2626.5" width="119" height="119" stroke="#F1F5F9"/>
<rect id="square_384" x="1785.5" y="2745.5" width="119" height="119" stroke="#F1F5F9"/>
</g>
<g id="Frame 58" clip-path="url(#clip16_602_553)">
<rect id="square_385" x="1904.5" y="8.5" width="119" height="119" stroke="#F1F5F9"/>
<rect id="square_386" x="1904.5" y="127.5" width="119" height="119" stroke="#F1F5F9"/>
<rect id="square_387" x="1904.5" y="246.5" width="119" height="119" stroke="#F1F5F9"/>
<rect id="square_388" x="1904.5" y="365.5" width="119" height="119" stroke="#F1F5F9"/>
<rect id="square_389" x="1904.5" y="484.5" width="119" height="119" stroke="#F1F5F9"/>
<rect id="square_390" x="1904.5" y="603.5" width="119" height="119" stroke="#F1F5F9"/>
<rect id="square_391" x="1904.5" y="722.5" width="119" height="119" stroke="#F1F5F9"/>
<rect id="square_392" x="1904.5" y="841.5" width="119" height="119" stroke="#F1F5F9"/>
<rect id="square_393" x="1904.5" y="960.5" width="119" height="119" stroke="#F1F5F9"/>
<rect id="square_394" x="1904.5" y="1079.5" width="119" height="119" stroke="#F1F5F9"/>
<rect id="square_395" x="1904.5" y="1198.5" width="119" height="119" stroke="#F1F5F9"/>
<rect id="square_396" x="1904.5" y="1317.5" width="119" height="119" stroke="#F1F5F9"/>
<rect id="square_397" x="1904.5" y="1436.5" width="119" height="119" stroke="#F1F5F9"/>
<rect id="square_398" x="1904.5" y="1555.5" width="119" height="119" stroke="#F1F5F9"/>
<rect id="square_399" x="1904.5" y="1674.5" width="119" height="119" stroke="#F1F5F9"/>
<rect id="square_400" x="1904.5" y="1793.5" width="119" height="119" stroke="#F1F5F9"/>
<rect id="square_401" x="1904.5" y="1912.5" width="119" height="119" stroke="#F1F5F9"/>
<rect id="square_402" x="1904.5" y="2031.5" width="119" height="119" stroke="#F1F5F9"/>
<rect id="square_403" x="1904.5" y="2150.5" width="119" height="119" stroke="#F1F5F9"/>
<rect id="square_404" x="1904.5" y="2269.5" width="119" height="119" stroke="#F1F5F9"/>
<rect id="square_405" x="1904.5" y="2388.5" width="119" height="119" stroke="#F1F5F9"/>
<rect id="square_406" x="1904.5" y="2507.5" width="119" height="119" stroke="#F1F5F9"/>
<rect id="square_407" x="1904.5" y="2626.5" width="119" height="119" stroke="#F1F5F9"/>
<rect id="square_408" x="1904.5" y="2745.5" width="119" height="119" stroke="#F1F5F9"/>
</g>
<g id="Frame 59" clip-path="url(#clip17_602_553)">
<rect id="square_409" x="2023.5" y="8.5" width="119" height="119" stroke="#F1F5F9"/>
<rect id="square_410" x="2023.5" y="127.5" width="119" height="119" stroke="#F1F5F9"/>
<rect id="square_411" x="2023.5" y="246.5" width="119" height="119" stroke="#F1F5F9"/>
<rect id="square_412" x="2023.5" y="365.5" width="119" height="119" stroke="#F1F5F9"/>
<rect id="square_413" x="2023.5" y="484.5" width="119" height="119" stroke="#F1F5F9"/>
<rect id="square_414" x="2023.5" y="603.5" width="119" height="119" stroke="#F1F5F9"/>
<rect id="square_415" x="2023.5" y="722.5" width="119" height="119" stroke="#F1F5F9"/>
<rect id="square_416" x="2023.5" y="841.5" width="119" height="119" stroke="#F1F5F9"/>
<rect id="square_417" x="2023.5" y="960.5" width="119" height="119" stroke="#F1F5F9"/>
<rect id="square_418" x="2023.5" y="1079.5" width="119" height="119" stroke="#F1F5F9"/>
<rect id="square_419" x="2023.5" y="1198.5" width="119" height="119" stroke="#F1F5F9"/>
<rect id="square_420" x="2023.5" y="1317.5" width="119" height="119" stroke="#F1F5F9"/>
<rect id="square_421" x="2023.5" y="1436.5" width="119" height="119" stroke="#F1F5F9"/>
<rect id="square_422" x="2023.5" y="1555.5" width="119" height="119" stroke="#F1F5F9"/>
<rect id="square_423" x="2023.5" y="1674.5" width="119" height="119" stroke="#F1F5F9"/>
<rect id="square_424" x="2023.5" y="1793.5" width="119" height="119" stroke="#F1F5F9"/>
<rect id="square_425" x="2023.5" y="1912.5" width="119" height="119" stroke="#F1F5F9"/>
<rect id="square_426" x="2023.5" y="2031.5" width="119" height="119" stroke="#F1F5F9"/>
<rect id="square_427" x="2023.5" y="2150.5" width="119" height="119" stroke="#F1F5F9"/>
<rect id="square_428" x="2023.5" y="2269.5" width="119" height="119" stroke="#F1F5F9"/>
<rect id="square_429" x="2023.5" y="2388.5" width="119" height="119" stroke="#F1F5F9"/>
<rect id="square_430" x="2023.5" y="2507.5" width="119" height="119" stroke="#F1F5F9"/>
<rect id="square_431" x="2023.5" y="2626.5" width="119" height="119" stroke="#F1F5F9"/>
<rect id="square_432" x="2023.5" y="2745.5" width="119" height="119" stroke="#F1F5F9"/>
</g>
<g id="Frame 60" clip-path="url(#clip18_602_553)">
<rect id="square_433" x="2142.5" y="8.5" width="119" height="119" stroke="#F1F5F9"/>
<rect id="square_434" x="2142.5" y="127.5" width="119" height="119" stroke="#F1F5F9"/>
<rect id="square_435" x="2142.5" y="246.5" width="119" height="119" stroke="#F1F5F9"/>
<rect id="square_436" x="2142.5" y="365.5" width="119" height="119" stroke="#F1F5F9"/>
<rect id="square_437" x="2142.5" y="484.5" width="119" height="119" stroke="#F1F5F9"/>
<rect id="square_438" x="2142.5" y="603.5" width="119" height="119" stroke="#F1F5F9"/>
<rect id="square_439" x="2142.5" y="722.5" width="119" height="119" stroke="#F1F5F9"/>
<rect id="square_440" x="2142.5" y="841.5" width="119" height="119" stroke="#F1F5F9"/>
<rect id="square_441" x="2142.5" y="960.5" width="119" height="119" stroke="#F1F5F9"/>
<rect id="square_442" x="2142.5" y="1079.5" width="119" height="119" stroke="#F1F5F9"/>
<rect id="square_443" x="2142.5" y="1198.5" width="119" height="119" stroke="#F1F5F9"/>
<rect id="square_444" x="2142.5" y="1317.5" width="119" height="119" stroke="#F1F5F9"/>
<rect id="square_445" x="2142.5" y="1436.5" width="119" height="119" stroke="#F1F5F9"/>
<rect id="square_446" x="2142.5" y="1555.5" width="119" height="119" stroke="#F1F5F9"/>
<rect id="square_447" x="2142.5" y="1674.5" width="119" height="119" stroke="#F1F5F9"/>
<rect id="square_448" x="2142.5" y="1793.5" width="119" height="119" stroke="#F1F5F9"/>
<rect id="square_449" x="2142.5" y="1912.5" width="119" height="119" stroke="#F1F5F9"/>
<rect id="square_450" x="2142.5" y="2031.5" width="119" height="119" stroke="#F1F5F9"/>
<rect id="square_451" x="2142.5" y="2150.5" width="119" height="119" stroke="#F1F5F9"/>
<rect id="square_452" x="2142.5" y="2269.5" width="119" height="119" stroke="#F1F5F9"/>
<rect id="square_453" x="2142.5" y="2388.5" width="119" height="119" stroke="#F1F5F9"/>
<rect id="square_454" x="2142.5" y="2507.5" width="119" height="119" stroke="#F1F5F9"/>
<rect id="square_455" x="2142.5" y="2626.5" width="119" height="119" stroke="#F1F5F9"/>
<rect id="square_456" x="2142.5" y="2745.5" width="119" height="119" stroke="#F1F5F9"/>
</g>
<g id="Frame 61" clip-path="url(#clip19_602_553)">
<rect id="square_457" x="2261.5" y="8.5" width="119" height="119" stroke="#F1F5F9"/>
<rect id="square_458" x="2261.5" y="127.5" width="119" height="119" stroke="#F1F5F9"/>
<rect id="square_459" x="2261.5" y="246.5" width="119" height="119" stroke="#F1F5F9"/>
<rect id="square_460" x="2261.5" y="365.5" width="119" height="119" stroke="#F1F5F9"/>
<rect id="square_461" x="2261.5" y="484.5" width="119" height="119" stroke="#F1F5F9"/>
<rect id="square_462" x="2261.5" y="603.5" width="119" height="119" stroke="#F1F5F9"/>
<rect id="square_463" x="2261.5" y="722.5" width="119" height="119" stroke="#F1F5F9"/>
<rect id="square_464" x="2261.5" y="841.5" width="119" height="119" stroke="#F1F5F9"/>
<rect id="square_465" x="2261.5" y="960.5" width="119" height="119" stroke="#F1F5F9"/>
<rect id="square_466" x="2261.5" y="1079.5" width="119" height="119" stroke="#F1F5F9"/>
<rect id="square_467" x="2261.5" y="1198.5" width="119" height="119" stroke="#F1F5F9"/>
<rect id="square_468" x="2261.5" y="1317.5" width="119" height="119" stroke="#F1F5F9"/>
<rect id="square_469" x="2261.5" y="1436.5" width="119" height="119" stroke="#F1F5F9"/>
<rect id="square_470" x="2261.5" y="1555.5" width="119" height="119" stroke="#F1F5F9"/>
<rect id="square_471" x="2261.5" y="1674.5" width="119" height="119" stroke="#F1F5F9"/>
<rect id="square_472" x="2261.5" y="1793.5" width="119" height="119" stroke="#F1F5F9"/>
<rect id="square_473" x="2261.5" y="1912.5" width="119" height="119" stroke="#F1F5F9"/>
<rect id="square_474" x="2261.5" y="2031.5" width="119" height="119" stroke="#F1F5F9"/>
<rect id="square_475" x="2261.5" y="2150.5" width="119" height="119" stroke="#F1F5F9"/>
<rect id="square_476" x="2261.5" y="2269.5" width="119" height="119" stroke="#F1F5F9"/>
<rect id="square_477" x="2261.5" y="2388.5" width="119" height="119" stroke="#F1F5F9"/>
<rect id="square_478" x="2261.5" y="2507.5" width="119" height="119" stroke="#F1F5F9"/>
<rect id="square_479" x="2261.5" y="2626.5" width="119" height="119" stroke="#F1F5F9"/>
<rect id="square_480" x="2261.5" y="2745.5" width="119" height="119" stroke="#F1F5F9"/>
</g>
<g id="Frame 62" clip-path="url(#clip20_602_553)">
<rect id="square_481" x="2380.5" y="8.5" width="119" height="119" stroke="#F1F5F9"/>
<rect id="square_482" x="2380.5" y="127.5" width="119" height="119" stroke="#F1F5F9"/>
<rect id="square_483" x="2380.5" y="246.5" width="119" height="119" stroke="#F1F5F9"/>
<rect id="square_484" x="2380.5" y="365.5" width="119" height="119" stroke="#F1F5F9"/>
<rect id="square_485" x="2380.5" y="484.5" width="119" height="119" stroke="#F1F5F9"/>
<rect id="square_486" x="2380.5" y="603.5" width="119" height="119" stroke="#F1F5F9"/>
<rect id="square_487" x="2380.5" y="722.5" width="119" height="119" stroke="#F1F5F9"/>
<rect id="square_488" x="2380.5" y="841.5" width="119" height="119" stroke="#F1F5F9"/>
<rect id="square_489" x="2380.5" y="960.5" width="119" height="119" stroke="#F1F5F9"/>
<rect id="square_490" x="2380.5" y="1079.5" width="119" height="119" stroke="#F1F5F9"/>
<rect id="square_491" x="2380.5" y="1198.5" width="119" height="119" stroke="#F1F5F9"/>
<rect id="square_492" x="2380.5" y="1317.5" width="119" height="119" stroke="#F1F5F9"/>
<rect id="square_493" x="2380.5" y="1436.5" width="119" height="119" stroke="#F1F5F9"/>
<rect id="square_494" x="2380.5" y="1555.5" width="119" height="119" stroke="#F1F5F9"/>
<rect id="square_495" x="2380.5" y="1674.5" width="119" height="119" stroke="#F1F5F9"/>
<rect id="square_496" x="2380.5" y="1793.5" width="119" height="119" stroke="#F1F5F9"/>
<rect id="square_497" x="2380.5" y="1912.5" width="119" height="119" stroke="#F1F5F9"/>
<rect id="square_498" x="2380.5" y="2031.5" width="119" height="119" stroke="#F1F5F9"/>
<rect id="square_499" x="2380.5" y="2150.5" width="119" height="119" stroke="#F1F5F9"/>
<rect id="square_500" x="2380.5" y="2269.5" width="119" height="119" stroke="#F1F5F9"/>
<rect id="square_501" x="2380.5" y="2388.5" width="119" height="119" stroke="#F1F5F9"/>
<rect id="square_502" x="2380.5" y="2507.5" width="119" height="119" stroke="#F1F5F9"/>
<rect id="square_503" x="2380.5" y="2626.5" width="119" height="119" stroke="#F1F5F9"/>
<rect id="square_504" x="2380.5" y="2745.5" width="119" height="119" stroke="#F1F5F9"/>
</g>
</g>
<defs>
<clipPath id="clip0_602_553">
<rect width="120" height="2857" fill="white" transform="translate(0 8)"/>
</clipPath>
<clipPath id="clip1_602_553">
<rect width="120" height="2857" fill="white" transform="translate(119 8)"/>
</clipPath>
<clipPath id="clip2_602_553">
<rect width="120" height="2857" fill="white" transform="translate(238 8)"/>
</clipPath>
<clipPath id="clip3_602_553">
<rect width="120" height="2857" fill="white" transform="translate(357 8)"/>
</clipPath>
<clipPath id="clip4_602_553">
<rect width="120" height="2857" fill="white" transform="translate(476 8)"/>
</clipPath>
<clipPath id="clip5_602_553">
<rect width="120" height="2857" fill="white" transform="translate(595 8)"/>
</clipPath>
<clipPath id="clip6_602_553">
<rect width="120" height="2857" fill="white" transform="translate(714 8)"/>
</clipPath>
<clipPath id="clip7_602_553">
<rect width="120" height="2857" fill="white" transform="translate(833 8)"/>
</clipPath>
<clipPath id="clip8_602_553">
<rect width="120" height="2857" fill="white" transform="translate(952 8)"/>
</clipPath>
<clipPath id="clip9_602_553">
<rect width="120" height="2857" fill="white" transform="translate(1071 8)"/>
</clipPath>
<clipPath id="clip10_602_553">
<rect width="120" height="2857" fill="white" transform="translate(1190 8)"/>
</clipPath>
<clipPath id="clip11_602_553">
<rect width="120" height="2857" fill="white" transform="translate(1309 8)"/>
</clipPath>
<clipPath id="clip12_602_553">
<rect width="120" height="2857" fill="white" transform="translate(1428 8)"/>
</clipPath>
<clipPath id="clip13_602_553">
<rect width="120" height="2857" fill="white" transform="translate(1547 8)"/>
</clipPath>
<clipPath id="clip14_602_553">
<rect width="120" height="2857" fill="white" transform="translate(1666 8)"/>
</clipPath>
<clipPath id="clip15_602_553">
<rect width="120" height="2857" fill="white" transform="translate(1785 8)"/>
</clipPath>
<clipPath id="clip16_602_553">
<rect width="120" height="2857" fill="white" transform="translate(1904 8)"/>
</clipPath>
<clipPath id="clip17_602_553">
<rect width="120" height="2857" fill="white" transform="translate(2023 8)"/>
</clipPath>
<clipPath id="clip18_602_553">
<rect width="120" height="2857" fill="white" transform="translate(2142 8)"/>
</clipPath>
<clipPath id="clip19_602_553">
<rect width="120" height="2857" fill="white" transform="translate(2261 8)"/>
</clipPath>
<clipPath id="clip20_602_553">
<rect width="120" height="2857" fill="white" transform="translate(2380 8)"/>
</clipPath>
</defs>
</svg>
