<svg width="1440" height="724" viewBox="0 0 1440 724" fill="none" xmlns="http://www.w3.org/2000/svg">
<g id="Frame 38">
<g id="Frame 36" clip-path="url(#clip0_219_34)">
<rect id="square" x="0.5" y="-54.5" width="119" height="119" stroke="#F1F5F9"/>
<rect id="square_2" x="0.5" y="64.5" width="119" height="119" stroke="#F1F5F9"/>
<rect id="square_3" x="0.5" y="183.5" width="119" height="119" stroke="#F1F5F9"/>
<rect id="square_4" x="0.5" y="302.5" width="119" height="119" stroke="#F1F5F9"/>
<rect id="square_5" x="0.5" y="421.5" width="119" height="119" stroke="#F1F5F9"/>
<rect id="square_6" x="0.5" y="540.5" width="119" height="119" stroke="#F1F5F9"/>
<rect id="square_7" x="0.5" y="659.5" width="119" height="119" stroke="#F1F5F9"/>
</g>
<g id="Frame 38_2" clip-path="url(#clip1_219_34)">
<rect id="square_8" x="119.5" y="-54.5" width="119" height="119" stroke="#F1F5F9"/>
<rect id="square_9" x="119.5" y="64.5" width="119" height="119" stroke="#F1F5F9"/>
<rect id="square_10" x="119.5" y="183.5" width="119" height="119" stroke="#F1F5F9"/>
<rect id="square_11" x="119.5" y="302.5" width="119" height="119" stroke="#F1F5F9"/>
<rect id="square_12" x="119.5" y="421.5" width="119" height="119" stroke="#F1F5F9"/>
<rect id="square_13" x="119.5" y="540.5" width="119" height="119" stroke="#F1F5F9"/>
<rect id="square_14" x="119.5" y="659.5" width="119" height="119" stroke="#F1F5F9"/>
</g>
<g id="Frame 39" clip-path="url(#clip2_219_34)">
<rect id="square_15" x="238.5" y="-54.5" width="119" height="119" stroke="#F1F5F9"/>
<rect id="square_16" x="238.5" y="64.5" width="119" height="119" stroke="#F1F5F9"/>
<rect id="square_17" x="238.5" y="183.5" width="119" height="119" stroke="#F1F5F9"/>
<rect id="square_18" x="238.5" y="302.5" width="119" height="119" stroke="#F1F5F9"/>
<rect id="square_19" x="238.5" y="421.5" width="119" height="119" stroke="#F1F5F9"/>
<rect id="square_20" x="238.5" y="540.5" width="119" height="119" stroke="#F1F5F9"/>
<rect id="square_21" x="238.5" y="659.5" width="119" height="119" stroke="#F1F5F9"/>
</g>
<g id="Frame 40" clip-path="url(#clip3_219_34)">
<rect id="square_22" x="357.5" y="-54.5" width="119" height="119" stroke="#F1F5F9"/>
<rect id="square_23" x="357.5" y="64.5" width="119" height="119" stroke="#F1F5F9"/>
<rect id="square_24" x="357.5" y="183.5" width="119" height="119" stroke="#F1F5F9"/>
<rect id="square_25" x="357.5" y="302.5" width="119" height="119" stroke="#F1F5F9"/>
<rect id="square_26" x="357.5" y="421.5" width="119" height="119" stroke="#F1F5F9"/>
<rect id="square_27" x="357.5" y="540.5" width="119" height="119" stroke="#F1F5F9"/>
<rect id="square_28" x="357.5" y="659.5" width="119" height="119" stroke="#F1F5F9"/>
</g>
<g id="Frame 41" clip-path="url(#clip4_219_34)">
<rect id="square_29" x="476.5" y="-54.5" width="119" height="119" stroke="#F1F5F9"/>
<rect id="square_30" x="476.5" y="64.5" width="119" height="119" stroke="#F1F5F9"/>
<rect id="square_31" x="476.5" y="183.5" width="119" height="119" stroke="#F1F5F9"/>
<rect id="square_32" x="476.5" y="302.5" width="119" height="119" stroke="#F1F5F9"/>
<rect id="square_33" x="476.5" y="421.5" width="119" height="119" stroke="#F1F5F9"/>
<rect id="square_34" x="476.5" y="540.5" width="119" height="119" stroke="#F1F5F9"/>
<rect id="square_35" x="476.5" y="659.5" width="119" height="119" stroke="#F1F5F9"/>
</g>
<g id="Frame 42" clip-path="url(#clip5_219_34)">
<rect id="square_36" x="595.5" y="-54.5" width="119" height="119" stroke="#F1F5F9"/>
<rect id="square_37" x="595.5" y="64.5" width="119" height="119" stroke="#F1F5F9"/>
<rect id="square_38" x="595.5" y="183.5" width="119" height="119" stroke="#F1F5F9"/>
<rect id="square_39" x="595.5" y="302.5" width="119" height="119" stroke="#F1F5F9"/>
<rect id="square_40" x="595.5" y="421.5" width="119" height="119" stroke="#F1F5F9"/>
<rect id="square_41" x="595.5" y="540.5" width="119" height="119" stroke="#F1F5F9"/>
<rect id="square_42" x="595.5" y="659.5" width="119" height="119" stroke="#F1F5F9"/>
</g>
<g id="Frame 43" clip-path="url(#clip6_219_34)">
<rect id="square_43" x="714.5" y="-54.5" width="119" height="119" stroke="#F1F5F9"/>
<rect id="square_44" x="714.5" y="64.5" width="119" height="119" stroke="#F1F5F9"/>
<rect id="square_45" x="714.5" y="183.5" width="119" height="119" stroke="#F1F5F9"/>
<rect id="square_46" x="714.5" y="302.5" width="119" height="119" stroke="#F1F5F9"/>
<rect id="square_47" x="714.5" y="421.5" width="119" height="119" stroke="#F1F5F9"/>
<rect id="square_48" x="714.5" y="540.5" width="119" height="119" stroke="#F1F5F9"/>
<rect id="square_49" x="714.5" y="659.5" width="119" height="119" stroke="#F1F5F9"/>
</g>
<g id="Frame 44" clip-path="url(#clip7_219_34)">
<rect id="square_50" x="833.5" y="-54.5" width="119" height="119" stroke="#F1F5F9"/>
<rect id="square_51" x="833.5" y="64.5" width="119" height="119" stroke="#F1F5F9"/>
<rect id="square_52" x="833.5" y="183.5" width="119" height="119" stroke="#F1F5F9"/>
<rect id="square_53" x="833.5" y="302.5" width="119" height="119" stroke="#F1F5F9"/>
<rect id="square_54" x="833.5" y="421.5" width="119" height="119" stroke="#F1F5F9"/>
<rect id="square_55" x="833.5" y="540.5" width="119" height="119" stroke="#F1F5F9"/>
<rect id="square_56" x="833.5" y="659.5" width="119" height="119" stroke="#F1F5F9"/>
</g>
<g id="Frame 45" clip-path="url(#clip8_219_34)">
<rect id="square_57" x="952.5" y="-54.5" width="119" height="119" stroke="#F1F5F9"/>
<rect id="square_58" x="952.5" y="64.5" width="119" height="119" stroke="#F1F5F9"/>
<rect id="square_59" x="952.5" y="183.5" width="119" height="119" stroke="#F1F5F9"/>
<rect id="square_60" x="952.5" y="302.5" width="119" height="119" stroke="#F1F5F9"/>
<rect id="square_61" x="952.5" y="421.5" width="119" height="119" stroke="#F1F5F9"/>
<rect id="square_62" x="952.5" y="540.5" width="119" height="119" stroke="#F1F5F9"/>
<rect id="square_63" x="952.5" y="659.5" width="119" height="119" stroke="#F1F5F9"/>
</g>
<g id="Frame 46" clip-path="url(#clip9_219_34)">
<rect id="square_64" x="1071.5" y="-54.5" width="119" height="119" stroke="#F1F5F9"/>
<rect id="square_65" x="1071.5" y="64.5" width="119" height="119" stroke="#F1F5F9"/>
<rect id="square_66" x="1071.5" y="183.5" width="119" height="119" stroke="#F1F5F9"/>
<rect id="square_67" x="1071.5" y="302.5" width="119" height="119" stroke="#F1F5F9"/>
<rect id="square_68" x="1071.5" y="421.5" width="119" height="119" stroke="#F1F5F9"/>
<rect id="square_69" x="1071.5" y="540.5" width="119" height="119" stroke="#F1F5F9"/>
<rect id="square_70" x="1071.5" y="659.5" width="119" height="119" stroke="#F1F5F9"/>
</g>
<g id="Frame 47" clip-path="url(#clip10_219_34)">
<rect id="square_71" x="1190.5" y="-54.5" width="119" height="119" stroke="#F1F5F9"/>
<rect id="square_72" x="1190.5" y="64.5" width="119" height="119" stroke="#F1F5F9"/>
<rect id="square_73" x="1190.5" y="183.5" width="119" height="119" stroke="#F1F5F9"/>
<rect id="square_74" x="1190.5" y="302.5" width="119" height="119" stroke="#F1F5F9"/>
<rect id="square_75" x="1190.5" y="421.5" width="119" height="119" stroke="#F1F5F9"/>
<rect id="square_76" x="1190.5" y="540.5" width="119" height="119" stroke="#F1F5F9"/>
<rect id="square_77" x="1190.5" y="659.5" width="119" height="119" stroke="#F1F5F9"/>
</g>
<g id="Frame 48" clip-path="url(#clip11_219_34)">
<rect id="square_78" x="1309.5" y="-54.5" width="119" height="119" stroke="#F1F5F9"/>
<rect id="square_79" x="1309.5" y="64.5" width="119" height="119" stroke="#F1F5F9"/>
<rect id="square_80" x="1309.5" y="183.5" width="119" height="119" stroke="#F1F5F9"/>
<rect id="square_81" x="1309.5" y="302.5" width="119" height="119" stroke="#F1F5F9"/>
<rect id="square_82" x="1309.5" y="421.5" width="119" height="119" stroke="#F1F5F9"/>
<rect id="square_83" x="1309.5" y="540.5" width="119" height="119" stroke="#F1F5F9"/>
<rect id="square_84" x="1309.5" y="659.5" width="119" height="119" stroke="#F1F5F9"/>
</g>
<g id="Frame 49" clip-path="url(#clip12_219_34)">
<rect id="square_85" x="1428.5" y="-54.5" width="119" height="119" stroke="#F1F5F9"/>
<rect id="square_86" x="1428.5" y="64.5" width="119" height="119" stroke="#F1F5F9"/>
<rect id="square_87" x="1428.5" y="183.5" width="119" height="119" stroke="#F1F5F9"/>
<rect id="square_88" x="1428.5" y="302.5" width="119" height="119" stroke="#F1F5F9"/>
<rect id="square_89" x="1428.5" y="421.5" width="119" height="119" stroke="#F1F5F9"/>
<rect id="square_90" x="1428.5" y="540.5" width="119" height="119" stroke="#F1F5F9"/>
<rect id="square_91" x="1428.5" y="659.5" width="119" height="119" stroke="#F1F5F9"/>
</g>
</g>
<defs>
<clipPath id="clip0_219_34">
<rect width="120" height="724" fill="white"/>
</clipPath>
<clipPath id="clip1_219_34">
<rect width="120" height="724" fill="white" transform="translate(119)"/>
</clipPath>
<clipPath id="clip2_219_34">
<rect width="120" height="724" fill="white" transform="translate(238)"/>
</clipPath>
<clipPath id="clip3_219_34">
<rect width="120" height="724" fill="white" transform="translate(357)"/>
</clipPath>
<clipPath id="clip4_219_34">
<rect width="120" height="724" fill="white" transform="translate(476)"/>
</clipPath>
<clipPath id="clip5_219_34">
<rect width="120" height="724" fill="white" transform="translate(595)"/>
</clipPath>
<clipPath id="clip6_219_34">
<rect width="120" height="724" fill="white" transform="translate(714)"/>
</clipPath>
<clipPath id="clip7_219_34">
<rect width="120" height="724" fill="white" transform="translate(833)"/>
</clipPath>
<clipPath id="clip8_219_34">
<rect width="120" height="724" fill="white" transform="translate(952)"/>
</clipPath>
<clipPath id="clip9_219_34">
<rect width="120" height="724" fill="white" transform="translate(1071)"/>
</clipPath>
<clipPath id="clip10_219_34">
<rect width="120" height="724" fill="white" transform="translate(1190)"/>
</clipPath>
<clipPath id="clip11_219_34">
<rect width="120" height="724" fill="white" transform="translate(1309)"/>
</clipPath>
<clipPath id="clip12_219_34">
<rect width="120" height="724" fill="white" transform="translate(1428)"/>
</clipPath>
</defs>
</svg>
